<svg width="33" height="22" viewBox="0 0 33 22" fill="none" xmlns="http://www.w3.org/2000/svg">
<path fill-rule="evenodd" clip-rule="evenodd" d="M9.13389 8.59237C9.94272 8.59237 10.6076 8.39372 11.1286 7.9983C11.3853 7.80259 11.5787 7.54729 11.7087 7.23198C11.8426 6.90722 11.9092 6.51879 11.9083 6.06619C11.9083 5.57145 11.8209 5.16479 11.6478 4.84808C11.4747 4.53137 11.2434 4.28213 10.9537 4.1041C10.6641 3.92607 10.3326 3.80238 9.95729 3.73304C9.5711 3.6637 9.17943 3.6281 8.78595 3.62997H4.53962V8.59612L9.13389 8.59237ZM12.7044 20.8747C11.8227 21.1127 10.9137 21.2326 10.0028 21.2307H0V0H9.71136C10.6932 0 11.5895 0.0899537 12.4002 0.267985C13.2108 0.446017 13.903 0.738363 14.4805 1.14502C15.058 1.55169 15.5061 2.0914 15.8249 2.76605C16.1437 3.4407 16.3022 4.27276 16.3022 5.26411C16.3022 6.08788 16.1618 6.80614 15.882 7.41888C15.7983 7.60209 15.7022 7.77587 15.5936 7.94021C15.1777 8.56952 14.585 9.09837 13.8178 9.52678C13.7146 9.58443 13.6082 9.64027 13.4986 9.69429C13.5469 9.7086 13.5948 9.72332 13.6421 9.73844C14.2177 9.92222 14.7246 10.1663 15.1628 10.4704C15.5883 10.7657 15.949 11.1176 16.2449 11.526C16.2795 11.5737 16.3131 11.6222 16.3459 11.6714C16.6489 12.1262 16.8787 12.6267 17.0352 13.1725C17.2023 13.7555 17.2859 14.3902 17.2859 15.0765C17.2859 15.7524 17.2052 16.3716 17.0438 16.9334C16.9497 17.261 16.8282 17.569 16.6793 17.8575C16.5189 18.1682 16.3365 18.4561 16.132 18.7214C15.8208 19.125 15.4586 19.4761 15.0452 19.7746C14.3603 20.2712 13.5806 20.6367 12.7044 20.8747ZM21.0477 6.45756C20.665 6.7335 20.3121 7.04469 19.9893 7.39112C19.3947 8.02925 18.9192 8.77091 18.564 9.61741C18.5165 9.73049 18.4712 9.84545 18.4281 9.96227C18.3774 10.0996 18.3302 10.2384 18.2865 10.3787C18.015 11.2515 17.8798 12.1828 17.8798 13.1725C17.8798 13.8378 17.9358 14.4726 18.0474 15.0765C18.1351 15.551 18.2572 16.0064 18.4135 16.4426C18.7107 17.272 19.1138 18.0031 19.6216 18.6379C19.7207 18.7619 19.8239 18.8821 19.931 18.9988C20.5868 19.7128 21.3865 20.2637 22.3301 20.6498C23.2738 21.0358 24.334 21.2289 25.509 21.2289C27.2049 21.2289 28.6495 20.8316 29.8446 20.0389C30.2382 19.7778 30.5984 19.4597 30.9251 19.0847C31.3798 18.5629 31.7696 17.9308 32.0945 17.1882C32.245 16.8441 32.3816 16.4763 32.5042 16.0847H28.8918C28.7831 16.4687 28.5237 16.8369 28.1138 17.1882C28.0156 17.2723 27.9088 17.3555 27.7933 17.4377C27.1958 17.8631 26.4836 18.0768 25.6547 18.0768C24.5191 18.0768 23.6433 17.7806 23.0291 17.1882C23.0177 17.1771 23.0063 17.166 22.995 17.1548C22.428 16.5904 22.0974 15.7051 22.0045 14.5046C21.9965 14.4014 21.9903 14.296 21.9858 14.1882H32.7665C32.7905 13.8154 32.7975 13.4476 32.7875 13.0847C32.7834 12.9354 32.7764 12.787 32.7665 12.6394C32.7336 12.1465 32.6687 11.6628 32.5717 11.1882C32.5429 11.0474 32.5113 10.9073 32.4769 10.7681C32.2073 9.67742 31.7682 8.70668 31.1616 7.854C30.782 7.32043 30.3361 6.8551 29.8243 6.45756C29.7586 6.40659 29.6919 6.35673 29.6241 6.30799C29.3757 6.12937 29.1128 5.96571 28.8353 5.81695C27.8899 5.31096 26.7823 5.05797 25.5108 5.05797C24.3741 5.05797 23.3375 5.26599 22.403 5.68202C22.0062 5.85867 21.6327 6.06303 21.2827 6.29509C21.2031 6.34782 21.1248 6.40198 21.0477 6.45756ZM22.0201 11.1882C22.0035 11.2984 21.992 11.4039 21.9858 11.5046H28.6623C28.6426 11.3965 28.6213 11.291 28.5986 11.1882C28.3965 10.2745 28.0753 9.56695 27.6349 9.06837C27.4223 8.82864 27.1621 8.64071 26.8543 8.50459C26.4498 8.32573 25.9631 8.2363 25.3942 8.2363C24.8127 8.2363 24.3186 8.32617 23.9132 8.50459C23.8613 8.5274 23.8109 8.55167 23.762 8.57738C23.3284 8.80601 22.9823 9.08711 22.7218 9.42443C22.4613 9.76175 22.2791 10.1178 22.1735 10.4945C22.1037 10.743 22.0523 10.9744 22.0201 11.1882ZM21.2827 3.45756H29.6241V1.07756H21.2827V3.45756ZM10.0553 11.8031C9.872 11.784 9.68085 11.7744 9.48183 11.7744H4.53962V17.6026L9.39439 17.6008C9.82249 17.6026 10.2488 17.5577 10.6659 17.4677C11.0703 17.3778 11.4274 17.2297 11.7352 17.0217C12.0431 16.8137 12.289 16.5307 12.473 16.1746C12.6552 15.8186 12.7481 15.3613 12.7481 14.8066C12.7481 13.7178 12.4493 12.9382 11.8518 12.4735C11.7331 12.3807 11.6068 12.2973 11.4728 12.223C11.0692 11.9994 10.5966 11.8595 10.0553 11.8031ZM14.9083 6.06348C14.9083 6.06234 14.9083 6.06121 14.9083 6.06007L13.1958 6.06356C13.1955 6.06444 13.1953 6.06532 13.195 6.06619" fill="white"/>
</svg>
