<svg width="34" height="33" viewBox="0 0 34 33" fill="none" xmlns="http://www.w3.org/2000/svg">
<path fill-rule="evenodd" clip-rule="evenodd" d="M16.9786 0.000108405C12.9476 -0.00415697 9.04674 1.42347 5.97544 4.02708C2.90413 6.63068 0.863169 10.24 0.2184 14.2081C-0.426368 18.1762 0.36722 22.2435 2.45691 25.6811C4.54659 29.1186 7.79574 31.7015 11.6219 32.9669C12.47 33.1219 12.7809 32.6004 12.7809 32.1494C12.7809 31.6984 12.7809 30.74 12.7809 29.3305C8.06019 30.3453 7.12736 27.0613 7.12736 27.0613C6.8143 26.039 6.14835 25.1602 5.24756 24.5807C3.70697 23.5377 5.36063 23.5518 5.36063 23.5518C5.89814 23.6289 6.41123 23.8262 6.86156 24.1288C7.31189 24.4315 7.68781 24.8317 7.96126 25.2995C8.19136 25.716 8.50175 26.0831 8.87458 26.3795C9.24741 26.676 9.67533 26.896 10.1337 27.027C10.5921 27.158 11.072 27.1973 11.5457 27.1427C12.0194 27.0882 12.4776 26.9407 12.894 26.709C12.9719 25.8498 13.3524 25.0458 13.9681 24.4398C10.2085 24.0169 6.23693 22.5652 6.23693 16.0818C6.2129 14.4003 6.84075 12.7745 7.98952 11.5434C7.43562 10.0898 7.466 8.47909 8.07433 7.0473C8.07433 7.0473 9.48771 6.58219 12.7385 8.78091C15.5125 8.01037 18.4448 8.01037 21.2188 8.78091C24.4696 6.554 25.883 7.0473 25.883 7.0473C26.5113 8.45996 26.572 10.0592 26.0526 11.5152C27.1962 12.7485 27.8189 14.3741 27.791 16.0536C27.791 22.5511 23.8336 23.9887 20.0598 24.3975C20.4624 24.8058 20.7738 25.2944 20.9735 25.8313C21.1733 26.3681 21.2569 26.941 21.2188 27.5123C21.2188 29.7674 21.2188 31.5856 21.2188 32.1494C21.2188 32.7132 21.5156 33.1219 22.3778 32.9669C26.2075 31.7005 29.459 29.114 31.5485 25.6721C33.638 22.2301 34.4285 18.1581 33.7782 14.1871C33.1279 10.2162 31.0792 6.60658 28.0002 4.00636C24.9212 1.40615 21.0134 -0.0142906 16.9786 0.000108405V0.000108405Z" fill="white"/>
</svg>
