<svg width="26" height="27" viewBox="0 0 26 27" fill="none" xmlns="http://www.w3.org/2000/svg">
<path fill-rule="evenodd" clip-rule="evenodd" d="M0 7.26923C0 3.25455 3.13401 0 7 0H19C22.866 0 26 3.25455 26 7.26923V19.7308C26 23.7455 22.866 27 19 27H7C3.13401 27 0 23.7455 0 19.7308V7.26923ZM13.6094 9.54261C12.8187 9.42086 12.0112 9.5611 11.3018 9.94338C10.5923 10.3257 10.017 10.9305 9.65767 11.6719C9.29832 12.4133 9.17324 13.2535 9.30022 14.073C9.4272 14.8925 9.79978 15.6495 10.365 16.2364C10.9301 16.8233 11.6591 17.2103 12.4483 17.3421C13.2374 17.474 14.0465 17.3441 14.7604 16.9709C15.4743 16.5978 16.0568 16.0003 16.4249 15.2636C16.793 14.5268 16.9281 13.6883 16.8109 12.8672C16.6913 12.0297 16.3155 11.2544 15.739 10.6557C15.1625 10.0571 14.4158 9.6668 13.6094 9.54261ZM10.3807 8.09986C11.4635 7.51637 12.696 7.30232 13.9027 7.48815C15.1337 7.6777 16.2733 8.27336 17.1532 9.18712C18.0331 10.1009 18.6067 11.2843 18.7892 12.5626C18.9682 13.8158 18.762 15.0956 18.2002 16.2201C17.6383 17.3446 16.7493 18.2565 15.6596 18.8261C14.5699 19.3957 13.335 19.5939 12.1305 19.3927C10.9261 19.1914 9.81338 18.6009 8.95074 17.705C8.0881 16.8092 7.51943 15.6537 7.32562 14.403C7.13181 13.1522 7.32272 11.8698 7.8712 10.7382C8.41967 9.60655 9.29779 8.68334 10.3807 8.09986ZM19.6001 5.60769C19.0478 5.60769 18.6001 6.07262 18.6001 6.64615C18.6001 7.21967 19.0478 7.68461 19.6001 7.68461H19.6127C20.165 7.68461 20.6127 7.21967 20.6127 6.64615C20.6127 6.07262 20.165 5.60769 19.6127 5.60769H19.6001Z" fill="white"/>
</svg>
