<svg width="28" height="27" viewBox="0 0 28 27" fill="none" xmlns="http://www.w3.org/2000/svg">
<path fill-rule="evenodd" clip-rule="evenodd" d="M3.62163 0C1.62146 0 0 1.63951 0 3.66194C0 5.68438 1.62146 7.32389 3.62163 7.32389C5.6218 7.32389 7.24325 5.68438 7.24325 3.66194C7.24325 1.63951 5.6218 0 3.62163 0ZM19.1892 7.87045C16.8524 7.87045 14.6113 8.80906 12.959 10.4798C11.3066 12.1505 10.3784 14.4166 10.3784 16.7794V25.9615C10.3784 26.5351 10.8382 27 11.4054 27H16.5946C17.1618 27 17.6216 26.5351 17.6216 25.9615V16.7794C17.6216 16.359 17.7868 15.9558 18.0807 15.6586C18.3747 15.3613 18.7734 15.1943 19.1892 15.1943C19.6049 15.1943 20.0036 15.3613 20.2976 15.6586C20.5916 15.9558 20.7567 16.359 20.7567 16.7794V25.9615C20.7567 26.5351 21.2166 27 21.7838 27H26.973C27.5402 27 28 26.5351 28 25.9615V16.7794C28 14.4166 27.0717 12.1505 25.4194 10.4798C23.767 8.80906 21.526 7.87045 19.1892 7.87045ZM0 10.2206C0 9.64712 0.459816 9.18218 1.02703 9.18218H6.21622C6.78344 9.18218 7.24325 9.64712 7.24325 10.2206V25.9615C7.24325 26.5351 6.78344 27 6.21622 27H1.02703C0.459816 27 0 26.5351 0 25.9615V10.2206Z" fill="white"/>
</svg>
