<svg width="63" height="70" viewBox="0 0 63 70" fill="none" xmlns="http://www.w3.org/2000/svg">
<path fill-rule="evenodd" clip-rule="evenodd" d="M59.4466 0.437134C61.1364 0.437134 62.5063 1.80703 62.5063 3.49688V66.4403C62.5063 67.6778 61.7608 68.7935 60.6175 69.2671C59.4741 69.7407 58.1581 69.479 57.283 68.6039L41.0881 52.4089V66.4403C41.0881 67.6778 40.3426 68.7935 39.1992 69.2671C38.0559 69.7407 36.7398 69.479 35.8647 68.6039L0.89618 33.6353C-0.298726 32.4404 -0.298726 30.5031 0.89618 29.3082C2.09109 28.1133 4.02841 28.1133 5.22332 29.3082L34.9686 59.0534V45.022C34.9686 43.7845 35.714 42.6688 36.8574 42.1952C38.0007 41.7216 39.3168 41.9834 40.1919 42.8585L56.3868 59.0534V3.49688C56.3868 1.80703 57.7567 0.437134 59.4466 0.437134Z" fill="url(#paint0_linear)"/>
<path fill-rule="evenodd" clip-rule="evenodd" d="M31.0346 0C32.7244 0 34.0943 1.3699 34.0943 3.05975V45.022C34.0943 45.1906 34.0804 45.3588 34.0527 45.525C33.2969 50.0602 28.7376 58.5723 17.0472 58.5723C5.35677 58.5723 0.79749 50.0602 0.0416312 45.525C0.0139245 45.3588 0 45.1906 0 45.022V31.4717C0 29.7819 1.3699 28.412 3.05975 28.412C4.7496 28.412 6.1195 29.7819 6.1195 31.4717V44.7413C6.64748 47.2919 9.38509 52.4528 17.0472 52.4528C24.7093 52.4528 27.4469 47.2919 27.9748 44.7413V3.05975C27.9748 1.3699 29.3447 0 31.0346 0Z" fill="url(#paint1_linear)"/>
<defs>
<linearGradient id="paint0_linear" x1="11.1362" y1="10.36" x2="54.415" y2="55.6957" gradientUnits="userSpaceOnUse">
<stop stop-color="#F0F0F0"/>
<stop offset="1" stop-color="#F6F6F6"/>
</linearGradient>
<linearGradient id="paint1_linear" x1="6.07428" y1="8.41557" x2="40.128" y2="31.3581" gradientUnits="userSpaceOnUse">
<stop stop-color="#52307D"/>
<stop offset="1" stop-color="#9783B1"/>
</linearGradient>
</defs>
</svg>
