<svg width="95" height="130" viewBox="0 0 95 130" fill="none" xmlns="http://www.w3.org/2000/svg">
<path d="M94.5383 4.45636L94.5427 4.45345C94.1931 3.22547 91.7007 0.893335 89.2215 0.941406C89.1326 0.939949 88.6869 0.986563 88.5252 1.07833L2.7445 50.6548C1.92585 51.1209 1.29366 51.8202 0.893072 52.6388C0.588627 53.2593 0.415283 53.9454 0.415283 54.6607V125.601C0.415283 128.255 3.47576 130.788 6.34832 129.569C6.35561 129.566 6.35998 129.559 6.36726 129.556C6.4299 129.534 6.49108 129.516 6.55226 129.481L92.3344 79.8597C93.7721 79.0396 94.6607 77.5115 94.6607 75.8567V4.96037C94.6607 4.77537 94.6112 4.60785 94.5369 4.45782L94.5383 4.45636Z" fill="#B1A2C5" fill-opacity="0.6"/>
<path d="M0.415509 54.659V125.599C0.415509 128.253 3.47598 130.786 6.34855 129.567C6.35583 129.564 6.3602 129.557 6.36749 129.554C5.63915 129.818 4.82924 129.293 4.82924 128.479V57.5388C4.82924 56.6167 5.11329 55.7383 5.6071 54.994L0.890387 52.6371C0.585942 53.2576 0.412598 53.9437 0.412598 54.659H0.415509Z" fill="white" fill-opacity="0.6"/>
<path d="M89.2212 0.941195C89.1324 0.939739 88.6866 0.986352 88.5249 1.07812L2.74425 50.6546C1.9256 51.1207 1.29341 51.8199 0.892822 52.6386L5.60954 54.9955C6.00138 54.4055 6.52287 53.8971 7.16089 53.5359L92.9416 3.95943C93.5475 3.61419 94.2628 3.89242 94.5395 4.45906L94.5439 4.45615C94.1943 3.22818 91.7019 0.896037 89.2227 0.944107L89.2212 0.941195Z" fill="white" fill-opacity="0.6"/>
<path d="M37.5938 54.7134L66.8132 57.2276L37.703 93.4143L37.5938 54.7134Z" fill="white" fill-opacity="0.6"/>
</svg>
