<svg width="63" height="89" viewBox="0 0 63 89" fill="none" xmlns="http://www.w3.org/2000/svg">
<path d="M58.189 8.70605L58.307 50.4077L5.64387 80.8115L5.52588 39.1112L58.189 8.70605Z" fill="#7D639E"/>
<path d="M0.954102 36.5053L62.7331 0.837158L62.8817 53.0138L1.10269 88.6819L0.954102 36.5053ZM58.3078 50.4078L58.1898 8.7061L5.52661 39.1113L5.6446 80.813L58.3078 50.4078Z" fill="#CBC1D8"/>
<path d="M49.1848 20.6916C50.1288 20.1468 50.895 20.5838 50.8979 21.6734L50.9663 45.8935C50.9692 46.9773 50.2074 48.297 49.2649 48.8404L40.2612 54.0392C44.1695 48.7195 46.7289 42.0697 46.7128 36.2168C46.6954 30.3625 44.1039 26.6872 40.1738 25.8934L49.1848 20.6916Z" fill="#36464F"/>
<path d="M31.8859 33.14C37.4693 29.9164 42.0112 32.5049 42.0302 38.9201C42.0491 45.3368 37.5363 53.1533 31.9529 56.3755C26.3636 59.602 21.8217 57.0135 21.8043 50.5983C21.7853 44.1817 26.2981 36.3666 31.8874 33.1386L31.8859 33.14ZM28.7817 45.1765C30.5093 44.1787 31.9092 41.7534 31.9048 39.7679C31.899 37.7766 30.4904 36.9784 28.7613 37.9762C27.0279 38.977 25.628 41.3965 25.6339 43.3878C25.6397 45.3732 27.0483 46.1758 28.7817 45.1751V45.1765Z" fill="#263138"/>
<path d="M23.5818 35.4739C19.6677 40.7966 17.1054 47.4477 17.1214 53.3021C17.1389 59.1565 19.726 62.8317 23.6546 63.6285L14.6553 68.8245C13.7113 69.3693 12.9408 68.9352 12.9364 67.8514L12.8679 43.6313C12.865 42.5417 13.6312 41.219 14.5752 40.6742L23.5818 35.4739Z" fill="#36464F"/>
<path d="M28.7623 37.9767C30.4899 36.9789 31.8999 37.7757 31.9058 39.7684C31.9116 41.7538 30.5117 44.1792 28.7827 45.177C27.0492 46.1778 25.6406 45.3752 25.6348 43.3897C25.629 41.3984 27.0288 38.9789 28.7623 37.9782V37.9767Z" fill="white"/>
<path d="M40.1735 25.8949C44.1036 26.6888 46.6951 30.364 46.7126 36.2184C46.7286 42.0727 44.1692 48.721 40.2609 54.0408C37.8997 57.2557 35.0446 59.9855 31.9681 61.7612C28.8901 63.5383 26.0278 64.1093 23.6548 63.6272C19.7277 62.8303 17.1391 59.1552 17.1217 53.3008C17.1056 47.4464 19.6679 40.7952 23.582 35.4725C25.9433 32.262 28.7969 29.5351 31.8719 27.7595C34.9455 25.9852 37.8035 25.4142 40.1735 25.8934V25.8949ZM31.9535 56.3773C37.537 53.1537 42.0497 45.3371 42.0308 38.9219C42.0119 32.5068 37.4699 29.9182 31.8865 33.1419C26.2972 36.3684 21.7845 44.1849 21.8034 50.6016C21.8223 57.0182 26.3643 59.6067 31.9521 56.3787L31.9535 56.3773Z" fill="#445964"/>
</svg>
