<svg width="48" height="95" viewBox="0 0 48 95" fill="none" xmlns="http://www.w3.org/2000/svg">
<path d="M41.7058 32.4176C41.8733 32.3215 42.0088 32.3972 42.0088 32.5895C42.0103 32.7818 41.8763 33.0134 41.7087 33.1095L37.0095 35.8233C36.8478 35.9165 36.7065 35.8437 36.7065 35.6514C36.7065 35.4591 36.8449 35.2246 37.0066 35.1299L41.7058 32.4176Z" fill="white"/>
<path d="M5.43311 30.0793L42.6118 8.61377L42.7706 64.7161L5.5919 86.1817L5.43311 30.0793ZM29.3882 54.3461L29.4158 54.1305C29.662 52.1101 30.4398 49.9192 31.6533 47.9323C33.8703 44.3052 35.2585 40.1348 35.2469 36.3911C35.2265 29.3291 30.2374 26.4668 24.0917 29.989C17.9285 33.5477 12.9102 42.2309 12.9306 49.2754C12.9408 52.9928 14.3247 55.5376 16.5272 56.6141C17.7435 57.2114 18.5753 58.4408 18.8316 60.1772L18.8709 60.4175C18.9846 61.1997 19.2948 61.8261 19.7668 62.2281L19.7712 63.7562L20.4077 63.3877L20.4092 63.9077L19.7726 64.2762L19.777 65.8043L20.4136 65.4357L20.415 65.9558L19.7785 66.3243L19.7828 67.8524L20.4194 67.4838L20.4223 68.4525L20.4733 68.8021C20.6626 70.2559 21.828 70.7468 23.1958 69.9573L23.0618 70.0345L23.0793 70.1408C23.1361 70.5647 23.4784 70.7147 23.8805 70.4817L24.45 70.1525C24.852 69.9194 25.1914 69.376 25.2468 68.8881L25.2628 68.7628L25.1288 68.84C26.4981 68.0505 27.6561 66.2165 27.8368 64.5501L27.8863 64.1422L27.8834 63.1735L28.5214 62.805L28.5171 61.2769L27.8805 61.6455L27.879 61.1254L28.5156 60.7569L28.5112 59.2289L27.8746 59.5974L27.8732 59.0774L28.5098 58.7088L28.5054 57.1808C28.973 56.2354 29.2774 55.255 29.3867 54.3432L29.3882 54.3461ZM30.249 26.3313C30.1718 26.5367 30.217 26.7232 30.3612 26.7348L30.5127 26.6984C30.619 26.6372 30.7196 26.5149 30.7749 26.3736L33.1085 20.3385C33.1915 20.1288 33.1405 19.9467 33.0007 19.9307C32.9526 19.9263 32.9002 19.9423 32.8492 19.9715C32.7458 20.0312 32.6438 20.1521 32.5885 20.2919L30.249 26.3313ZM15.0763 30.2804C14.9365 30.4581 14.887 30.6984 14.9714 30.8106L17.3313 34.1362C17.3866 34.2134 17.4886 34.2192 17.5949 34.158L17.7464 34.0196C17.8906 33.839 17.9358 33.6016 17.8571 33.4865L15.4915 30.1638C15.4346 30.0881 15.3341 30.0866 15.2292 30.1463C15.1768 30.1755 15.1258 30.2206 15.0778 30.2804H15.0763ZM33.1027 55.5974C33.2425 55.4211 33.292 55.1793 33.2075 55.0613L30.8477 51.7416C30.7909 51.6614 30.689 51.6571 30.5841 51.7182C30.5331 51.7474 30.4806 51.7925 30.434 51.8522C30.2898 52.0329 30.2447 52.2703 30.3233 52.3927L32.689 55.7081C32.7443 55.7853 32.8463 55.7911 32.9526 55.7299L33.1041 55.5974H33.1027ZM17.9299 59.5464C18.0071 59.3337 17.9634 59.1487 17.8163 59.1356C17.7682 59.1313 17.7173 59.1458 17.6663 59.1764C17.5614 59.2361 17.4594 59.3585 17.4041 59.5027L15.0705 65.5319C14.9875 65.7475 15.0384 65.9296 15.1783 65.9456L15.3298 65.9033C15.4361 65.8422 15.5366 65.7198 15.592 65.5785L17.9314 59.5464H17.9299ZM13.0705 57.0336C13.2161 56.853 13.2657 56.6127 13.1812 56.4932C13.1258 56.4146 13.0253 56.4131 12.9234 56.4714C12.8709 56.502 12.817 56.5486 12.7675 56.6098L8.70774 61.6542C8.5679 61.8305 8.51834 62.0723 8.60283 62.1903C8.65964 62.2675 8.76015 62.2733 8.86067 62.215L9.01217 62.0767L13.0719 57.0322L13.0705 57.0336ZM39.6358 44.2761C39.7189 44.0605 39.6737 43.874 39.528 43.8624L35.4523 43.5142C35.4027 43.5099 35.3488 43.5259 35.2964 43.5565C35.193 43.6162 35.094 43.7327 35.0386 43.8755C34.9556 44.0911 35.0065 44.2732 35.1522 44.2863L39.2265 44.6344L39.378 44.598C39.4785 44.5397 39.579 44.4174 39.6344 44.2761H39.6358ZM35.1085 28.8368C34.9628 29.0174 34.9133 29.2578 34.9978 29.3772C35.0532 29.4544 35.1551 29.4602 35.2614 29.3991L35.4129 29.2665L39.4727 24.2148C39.6169 24.0341 39.6621 23.7967 39.5776 23.6845C39.5208 23.6059 39.4188 23.6015 39.3154 23.6612C39.2644 23.6904 39.2149 23.7341 39.1683 23.7923L35.1085 28.8368ZM8.54312 41.6016C8.46009 41.8099 8.51107 41.9935 8.65091 42.0095L12.7267 42.3635L12.8782 42.3212C12.9845 42.26 13.085 42.1377 13.1404 41.9964C13.2234 41.7808 13.1724 41.5987 13.0268 41.5856L8.951 41.2375C8.90584 41.2331 8.85485 41.2462 8.80387 41.2753C8.70045 41.3351 8.59847 41.456 8.54312 41.6016ZM23.7304 22.8659L23.7465 28.2658C23.7465 28.4581 23.8819 28.5353 24.0494 28.4377C24.2169 28.3415 24.351 28.1099 24.3495 27.9176L24.3349 22.5177C24.3335 22.3255 24.1995 22.2482 24.032 22.3444C23.8644 22.4405 23.7304 22.6721 23.7319 22.8659H23.7304ZM41.7087 33.1107C41.8762 33.0145 42.0102 32.7829 42.0088 32.5906C42.0088 32.3984 41.8733 32.3212 41.7058 32.4188L37.0065 35.1311C36.8448 35.2243 36.705 35.4603 36.7065 35.6526C36.7065 35.8449 36.8478 35.9191 37.0094 35.8245L41.7087 33.1107ZM6.17019 53.2812C6.17165 53.4735 6.30567 53.5507 6.47319 53.4531L11.1724 50.7394C11.3341 50.6461 11.474 50.4116 11.4725 50.2193C11.4711 50.027 11.3312 49.9528 11.1695 50.0474L6.47028 52.7598C6.30276 52.8559 6.16873 53.0875 6.17019 53.2812Z" fill="#7D639E"/>
<path d="M25.2665 68.764L25.2504 68.8893C25.1965 69.3773 24.8557 69.9206 24.4536 70.1522L23.8841 70.4815C23.4821 70.7131 23.1397 70.5645 23.0829 70.1406L23.0654 70.0343L23.1995 69.9571L25.1325 68.8412L25.2665 68.764Z" fill="#36464F"/>
<path d="M27.8886 64.1434L27.839 64.5513C27.6584 66.2177 26.5004 68.0517 25.1311 68.8412L23.1981 69.957C21.8288 70.7465 20.6634 70.2556 20.4755 68.8019L20.4246 68.4523L27.89 64.142L27.8886 64.1434Z" fill="#445964"/>
<path d="M20.417 65.957L20.4155 65.4355L27.8795 61.1267L27.881 61.6467L20.417 65.957Z" fill="#36464F"/>
<path d="M28.5128 59.2305L28.5171 60.7585L27.8791 61.1271L20.4151 65.4359L19.7771 65.8044L19.7742 64.2764L20.4107 63.9078L27.8762 59.599L28.5128 59.2305Z" fill="#445964"/>
<path d="M27.708 41.5286C28.3344 41.1673 28.8443 41.4587 28.8457 42.171L28.8617 47.7311C28.8632 48.3546 28.6534 49.0669 28.2688 49.7326L27.3613 51.3043C27.0613 51.82 26.8996 52.3692 26.901 52.8572L26.9156 58.1026L26.4626 58.3648L26.448 53.1194C26.4465 52.4974 26.6578 51.7836 27.035 51.1281L27.9484 49.5461C28.2441 49.0348 28.4102 48.4828 28.4087 47.9933L28.3927 42.4332C28.3912 42.0093 28.0839 41.833 27.7095 42.0501C27.3351 42.2671 27.035 42.7944 27.035 43.2169L27.0496 48.2832C27.0525 49.0028 26.5456 49.8797 25.9251 50.2381C25.2987 50.5993 24.7889 50.308 24.7874 49.5898L24.7728 44.5235C24.7714 44.0996 24.4684 43.9205 24.094 44.1375C23.7197 44.3531 23.4196 44.8819 23.4196 45.3043L23.4341 50.3706C23.4356 51.0902 22.9301 51.9671 22.3038 52.3284C21.6832 52.6867 21.1734 52.3954 21.1719 51.6772L21.1574 46.6109C21.1559 46.187 20.8529 46.0079 20.4785 46.2249C20.1042 46.4405 19.7983 46.9722 19.7983 47.3961L19.8143 52.9562C19.8158 53.4442 19.9848 53.8025 20.2819 53.973L21.2011 54.4974C21.5827 54.7144 21.7954 55.182 21.7983 55.8055L21.8129 61.0509L21.3598 61.3131L21.3453 56.0677C21.3438 55.5797 21.1807 55.217 20.8777 55.0509L19.9643 54.5309C19.5769 54.3109 19.37 53.8389 19.3671 53.2169L19.3511 47.6568C19.3496 46.9445 19.8507 46.069 20.4756 45.7078C21.0962 45.3494 21.606 45.6408 21.6075 46.3531L21.622 51.4194C21.6235 51.8491 21.9265 52.0283 22.3008 51.8127C22.6752 51.5971 22.9811 51.0654 22.9811 50.6357L22.9666 45.5694C22.9651 44.8571 23.4662 43.9816 24.0911 43.6204C24.7175 43.2591 25.2215 43.5534 25.2229 44.2657L25.2375 49.332C25.239 49.7617 25.5463 49.938 25.9207 49.7224C26.2951 49.5068 26.5966 48.978 26.5951 48.5483L26.5806 43.482C26.5777 42.7697 27.0846 41.8913 27.7051 41.533L27.708 41.5286Z" fill="white"/>
<path d="M47.5637 0.0380859L0.448975 27.24L0.639808 94.7584L47.7545 67.5564L47.5637 0.0380859ZM5.5925 86.1815L5.43371 30.0791L42.6125 8.61353L42.7712 64.7159L5.5925 86.1815Z" fill="#B1A2C5"/>
<path d="M20.4238 68.454L20.4209 67.4853L27.8849 63.175L27.8878 64.1437L20.4238 68.454Z" fill="#36464F"/>
<path d="M28.5189 61.2781L28.5232 62.8061L27.8852 63.1747L20.4212 67.485L19.7846 67.8521L19.7788 66.324L20.4168 65.9569L27.8808 61.6466L28.5189 61.2781Z" fill="#445964"/>
<path d="M20.4099 63.3876L27.8739 59.0787L27.8768 59.5988L20.4114 63.9076L20.4099 63.3876Z" fill="#36464F"/>
<path d="M28.5071 57.1821L28.5115 58.7102L27.8735 59.0787L20.4095 63.3876L19.7729 63.7561L19.7686 62.2281L28.5071 57.1821Z" fill="#445964"/>
<path d="M8.80372 41.2755C8.85471 41.2463 8.90423 41.2318 8.95085 41.2376L13.0266 41.5857C13.1723 41.5989 13.2233 41.7809 13.1402 41.9965C13.0849 42.1378 12.9844 42.2602 12.878 42.3214L12.7265 42.3636L8.65076 42.0096C8.51092 41.9936 8.45994 41.8115 8.54297 41.6018C8.59833 41.4576 8.7003 41.3352 8.80372 41.2755Z" fill="white"/>
<path d="M30.584 51.7184C30.6889 51.6572 30.7909 51.6615 30.8477 51.7417L33.2075 55.0614C33.292 55.1794 33.2425 55.4212 33.1026 55.5975L32.9511 55.73C32.8448 55.7912 32.7443 55.7854 32.6875 55.7082L30.3218 52.3928C30.2432 52.2704 30.2869 52.033 30.4325 51.8524C30.4806 51.7926 30.5316 51.7489 30.5826 51.7184H30.584Z" fill="white"/>
<path d="M39.3161 23.66C39.4195 23.6003 39.5215 23.6047 39.5783 23.6833C39.6628 23.7955 39.6191 24.0329 39.4734 24.2136L35.4136 29.2653L35.2621 29.3979C35.1558 29.459 35.0553 29.4532 34.9985 29.376C34.914 29.258 34.9635 29.0162 35.1092 28.8356L39.1689 23.7911C39.2141 23.7329 39.2651 23.6892 39.3161 23.66Z" fill="white"/>
<path d="M12.9225 56.473C13.0259 56.4133 13.1249 56.4162 13.1803 56.4949C13.2648 56.6129 13.2153 56.8547 13.0696 57.0353L9.00982 62.0798L8.85832 62.2182C8.75781 62.2764 8.65733 62.2706 8.60052 62.1934C8.51603 62.0754 8.56555 61.8336 8.70539 61.6573L12.7651 56.6129C12.8147 56.5517 12.8686 56.5051 12.921 56.4745L12.9225 56.473Z" fill="white"/>
<path d="M32.8499 19.9714C32.9008 19.9423 32.9533 19.9263 33.0013 19.9306C33.1412 19.9467 33.1922 20.1288 33.1092 20.3385L30.7756 26.3735C30.7202 26.5148 30.6197 26.6372 30.5134 26.6984L30.3619 26.7348C30.2162 26.7231 30.171 26.5367 30.2497 26.3313L32.5891 20.2919C32.6445 20.1521 32.7464 20.0326 32.8499 19.9714Z" fill="white"/>
<path d="M11.1714 50.0461C11.3331 49.9528 11.4744 50.0257 11.4744 50.2194C11.4759 50.4117 11.336 50.6462 11.1744 50.7394L6.47512 53.4532C6.3076 53.5494 6.17212 53.4736 6.17212 53.2813C6.17212 53.089 6.30614 52.8574 6.4722 52.7598L11.1714 50.0461Z" fill="white"/>
<path d="M24.0305 22.3446C24.1981 22.2484 24.3335 22.3242 24.3335 22.5179L24.3481 27.9178C24.3481 28.1101 24.2155 28.3417 24.048 28.4378C23.8805 28.534 23.745 28.4582 23.745 28.266L23.729 22.8661C23.729 22.6738 23.863 22.4422 24.0291 22.3446H24.0305Z" fill="white"/>
<path d="M15.2277 30.1448C15.3312 30.0851 15.4331 30.0866 15.4899 30.1623L17.8555 33.485C17.9342 33.6001 17.8905 33.8375 17.7448 34.0181L17.5934 34.1565C17.487 34.2177 17.3865 34.2119 17.3297 34.1347L14.9699 30.8091C14.8854 30.6969 14.9349 30.4566 15.0748 30.2789C15.1228 30.2191 15.1753 30.174 15.2263 30.1448H15.2277Z" fill="white"/>
<path d="M35.2967 43.5551C35.3491 43.5245 35.403 43.5099 35.4525 43.5128L39.5283 43.861C39.674 43.8741 39.7191 44.0591 39.6361 44.2747C39.5808 44.416 39.4802 44.5383 39.3797 44.5966L39.2282 44.633L35.1525 44.2849C35.0068 44.2718 34.9558 44.0897 35.0389 43.8741C35.0942 43.7313 35.1932 43.6148 35.2967 43.5551Z" fill="white"/>
<path d="M17.6666 59.1765C17.7176 59.1474 17.77 59.1314 17.8181 59.1357C17.9637 59.1474 18.0089 59.3338 17.9317 59.5465L15.5923 65.5786C15.537 65.7199 15.4364 65.8423 15.3301 65.9034L15.1786 65.9457C15.0388 65.9297 14.9878 65.7476 15.0708 65.532L17.4044 59.5028C17.4598 59.3586 17.5617 59.2362 17.6666 59.1765Z" fill="white"/>
<path d="M24.0612 30.005C30.2375 26.4653 35.2266 29.3262 35.247 36.3896C35.2572 40.1333 33.8704 44.3037 31.6534 47.9308C30.4385 49.9177 29.6621 52.11 29.4159 54.129L29.3883 54.3446C29.279 55.2565 28.9745 56.2368 28.507 57.1822L26.9148 58.1013L26.9002 52.8559C26.8988 52.3679 27.059 51.8187 27.3605 51.303L28.268 49.7313C28.6526 49.0656 28.8624 48.3533 28.8609 47.7298L28.8449 42.1697C28.8435 41.4574 28.3336 41.166 27.7072 41.5273C27.0867 41.8856 26.5798 42.7626 26.5827 43.4763L26.5972 48.5426C26.5987 48.9724 26.2972 49.4997 25.9228 49.7167C25.5484 49.9323 25.2396 49.7575 25.2396 49.3263L25.2251 44.26C25.2236 43.5477 24.7181 43.2535 24.0932 43.6147C23.4683 43.976 22.9672 44.85 22.9687 45.5637L22.9833 50.6301C22.9847 51.0598 22.6773 51.59 22.303 51.8071C21.9286 52.0226 21.6256 51.8449 21.6242 51.4138L21.6096 46.3474C21.6081 45.6351 21.0968 45.3438 20.4777 45.7021C19.8514 46.0634 19.3503 46.9374 19.3532 47.6512L19.3692 53.2113C19.3707 53.8333 19.579 54.3053 19.9665 54.5252L20.8798 55.0452C21.1828 55.2113 21.3459 55.574 21.3474 56.062L21.362 61.3075L19.7698 62.2267C19.2979 61.8232 18.989 61.1982 18.8739 60.416L18.8346 60.1757C18.5782 58.4393 17.7465 57.2099 16.5302 56.6126C14.3277 55.5361 12.9439 52.9913 12.9337 49.2739C12.9133 42.2294 17.9315 33.5447 24.0641 30.005H24.0612Z" fill="#B1A2C5"/>
<path d="M27.0344 51.1253C26.6556 51.7808 26.4444 52.4946 26.4473 53.1181L26.4619 58.3636L21.8122 61.0468L21.7976 55.8013C21.7962 55.1778 21.5821 54.7102 21.2004 54.4932L20.2812 53.9688C19.9841 53.7998 19.8151 53.44 19.8137 52.952L19.7976 47.3919C19.7962 46.968 20.1035 46.4378 20.4779 46.2207C20.8522 46.0051 21.1552 46.1843 21.1567 46.6067L21.1712 51.6731C21.1727 52.3926 21.684 52.6825 22.3031 52.3242C22.9295 51.9629 23.4349 51.0846 23.4335 50.3664L23.4189 45.3001C23.4175 44.8762 23.719 44.3489 24.0933 44.1333C24.4677 43.9177 24.7707 44.0969 24.7721 44.5193L24.7867 49.5856C24.7882 50.3052 25.298 50.5951 25.9244 50.2339C26.5449 49.8755 27.0519 48.9986 27.0489 48.279L27.0344 43.2127C27.0329 42.7888 27.3345 42.2615 27.7088 42.0459C28.0832 41.8303 28.392 42.0051 28.392 42.429L28.408 47.9891C28.4095 48.4771 28.2434 49.0306 27.9477 49.5419L27.0344 51.1239V51.1253Z" fill="#B1A2C5"/>
</svg>
