<svg width="74" height="101" viewBox="0 0 74 101" fill="none" xmlns="http://www.w3.org/2000/svg">
<path d="M66.8019 37.9686C67.051 37.8258 67.2607 37.7093 67.4676 37.5986C67.689 37.4806 67.9104 37.3684 68.1304 37.2621L68.1595 47.4341C58.4041 53.0044 48.6488 58.5674 38.9007 64.1334C27.8824 70.4189 16.87 76.7001 5.85168 82.9857L5.82837 74.4233C5.88518 74.3665 5.94053 74.3097 5.99734 74.2529C6.22022 74.0315 6.446 73.8159 6.67324 73.6047C8.17944 72.2077 9.76722 71.0482 11.3681 70.1072C11.4293 70.0708 11.4919 70.0358 11.5531 69.9994C11.6478 69.9455 11.7425 69.8916 11.8372 69.8377C12.9399 69.2186 14.0469 68.7015 15.1336 68.2805C15.4424 68.1611 15.7512 68.0474 16.0571 67.9426C20.1854 66.5354 24.0587 66.3344 27.9902 65.8158C28.3762 65.7648 28.7637 65.7109 29.1526 65.6527C32.3063 65.1763 35.5708 64.3897 38.8963 62.6155C39.1454 62.483 39.3945 62.3446 39.6451 62.2004C39.8519 62.0809 40.0573 61.9586 40.2627 61.8318C45.8607 58.378 51.0071 52.2921 56.2016 46.8907C56.4638 46.6183 56.7275 46.3459 56.9926 46.0764C57.1194 45.9482 57.2446 45.82 57.3728 45.6919C57.6102 45.453 57.8506 45.2141 58.0909 44.9766C58.2104 44.8601 58.3298 44.7436 58.4478 44.627C61.0538 42.0924 63.788 39.7705 66.4683 38.1652C66.5805 38.0982 66.6926 38.0327 66.8033 37.9686H66.8019Z" fill="#B1A2C5"/>
<path d="M32.0705 35.2181C35.6918 33.1278 38.6358 34.8059 38.6474 38.9734C38.6591 43.1337 35.7341 48.2 32.1142 50.2903C28.4871 52.3836 25.5432 50.7055 25.5315 46.5452C25.5199 42.3777 28.4449 37.3114 32.072 35.2181H32.0705Z" fill="white"/>
<path d="M38.8943 62.6155C35.5687 64.3897 32.3043 65.1763 29.1506 65.6526C32.3043 65.1763 35.5687 64.3883 38.8943 62.6155Z" fill="#5D3464"/>
<path d="M12.1315 57.1206C12.6296 56.8337 13.1264 56.602 13.6187 56.4403C15.1963 55.932 16.5874 56.1665 17.9436 56.401C20.7462 56.8875 23.543 57.3697 26.3399 57.8591C27.7048 58.098 29.2663 57.7076 30.8293 56.8045C32.3253 55.9407 33.8213 54.6078 35.144 52.9064C36.726 50.87 38.3137 48.9472 40.0064 47.9698C40.0676 47.9348 40.1287 47.8999 40.1899 47.8678C41.6816 47.0696 42.9707 47.1613 44.2249 47.4206C45.5854 47.7032 47.1616 47.3201 48.7406 46.4082C50.3721 45.4658 52.005 43.961 53.402 42.0455C54.9985 39.8634 56.6066 37.6696 58.0823 35.5429C59.2826 33.8182 60.5368 32.0352 62.0022 30.8568C62.3445 30.5844 62.6824 30.3542 63.0175 30.1605C64.7669 29.1495 66.4334 29.1364 68.1056 29.1816L68.129 37.2603C67.909 37.3666 67.6876 37.4788 67.4662 37.5968C67.2579 37.7075 67.051 37.8226 66.8412 37.9435C66.6883 38.0309 66.5761 38.0979 66.464 38.1649C63.7837 39.7702 61.0495 42.0921 58.4435 44.6267C58.3241 44.7432 58.2046 44.8598 58.0866 44.9763C57.8463 45.2123 57.6074 45.4512 57.3685 45.6915C57.2418 45.8197 57.115 45.9479 56.9883 46.0761C56.7232 46.347 56.4581 46.618 56.1973 46.8904C51.0014 52.2917 45.8564 58.3777 40.2584 61.8315C40.053 61.9582 39.8476 62.0791 39.6437 62.1971C39.3917 62.3428 39.1426 62.4812 38.8935 62.6137C35.5679 64.3865 32.3035 65.1746 29.1498 65.6509C28.7609 65.7092 28.3734 65.7631 27.9874 65.814C24.0543 66.3326 20.1825 66.5336 16.0543 67.9408C15.7484 68.0457 15.4396 68.1578 15.1307 68.2787C14.0441 68.6997 12.937 69.2168 11.8343 69.8359C11.7396 69.8884 11.6449 69.9423 11.5502 69.9976C11.4891 70.0326 11.4279 70.069 11.3652 70.1054C9.76436 71.0464 8.17659 72.2059 6.67038 73.6029C6.44314 73.8141 6.21736 74.0297 5.99449 74.2511C5.93768 74.3079 5.88086 74.3647 5.82551 74.4215L5.79492 63.5096C6.35865 62.7128 6.9355 61.9451 7.54147 61.2211C8.95008 59.5343 10.5422 58.0354 12.1315 57.1192V57.1206Z" fill="#9783B1"/>
<path d="M0.385498 42.2351L73.3736 0.0964355L73.5383 58.3605L0.550103 100.499L0.385498 42.2351ZM68.1063 29.1848L68.0495 9.32303L5.74315 45.2956L5.87279 91.2784L68.1791 55.3059L68.1573 47.434L68.1282 37.262L68.1049 29.1833L68.1063 29.1848Z" fill="#CBC1D8"/>
<path d="M5.84985 82.9857C16.8681 76.7001 27.8806 70.419 38.8989 64.1334C48.6484 58.5674 58.4038 53.0044 68.1577 47.4341L68.1795 55.3059L5.87316 91.2785L5.84985 82.9857Z" fill="#445964"/>
<path d="M5.74365 45.2956L68.05 9.323L68.1068 29.1848C66.4331 29.1396 64.7681 29.1542 63.0187 30.1636C62.6836 30.3574 62.3457 30.5861 62.0033 30.8599C60.5365 32.0384 59.2823 33.8214 58.0834 35.5461C56.6078 37.6713 54.9997 39.8665 53.4031 42.0486C52.0062 43.9642 50.3733 45.4689 48.7418 46.4114C47.1627 47.3233 45.5866 47.7064 44.2261 47.4238C42.9719 47.1645 41.6827 47.0713 40.1911 47.871C40.1299 47.9045 40.0687 47.938 40.0076 47.9729C38.3134 48.9504 36.7271 50.8732 35.1452 52.9096C33.8211 54.611 32.3251 55.9439 30.8305 56.8077C29.2675 57.7108 27.7045 58.0998 26.341 57.8623C23.5442 57.3729 20.7474 56.8893 17.9448 56.4042C16.5886 56.1697 15.196 55.9351 13.6199 56.4435C13.129 56.6052 12.6308 56.8353 12.1326 57.1238C10.5434 58.0415 8.95125 59.5389 7.54265 61.2258C6.93667 61.9497 6.35983 62.7189 5.79609 63.5142L5.74365 45.297V45.2956ZM32.1124 50.2905C35.7337 48.2002 38.6587 43.1324 38.6456 38.9736C38.6339 34.8061 35.69 33.128 32.0687 35.2183C28.443 37.3116 25.5166 42.3793 25.5282 46.5454C25.5399 50.7057 28.4838 52.3838 32.1109 50.2905H32.1124Z" fill="#7D639E"/>
<path d="M15.1309 68.2803C14.0442 68.7013 12.9372 69.2184 11.8345 69.8375C12.9386 69.2184 14.0442 68.7013 15.1309 68.2803Z" fill="#5D3464"/>
</svg>
