<svg width="85" height="88" viewBox="0 0 85 88" fill="none" xmlns="http://www.w3.org/2000/svg">
<path d="M47.9035 82.3332C47.9457 84.9538 45.854 87.1111 43.2348 87.1519C40.6143 87.1927 38.4569 85.1024 38.4162 82.4833C38.3739 79.8671 40.4599 77.7112 43.0761 77.6646C45.6966 77.618 47.8583 79.7039 47.9049 82.3245C47.9049 82.3274 47.9049 82.3303 47.9049 82.3347L47.9035 82.3332Z" fill="#36464F"/>
<path d="M37.4126 82.8331C34.2342 81.069 34.1818 78.1236 37.3092 76.246C40.8664 74.3756 45.1024 74.313 48.7135 76.0799C51.876 77.8498 51.9299 80.7966 48.8111 82.6524C45.2583 84.5286 41.0237 84.5956 37.4126 82.8345V82.8331Z" fill="#445964"/>
<path d="M37.2072 81.127C33.9341 79.296 33.8802 76.2632 37.0936 74.336C40.763 72.4118 45.1271 72.3433 48.8548 74.151C52.1279 75.9806 52.1818 79.0149 48.948 80.9333C45.2918 82.8765 40.9261 82.9493 37.2087 81.1285L37.2072 81.127Z" fill="#36464F"/>
<path d="M37.0053 79.385C33.6419 77.503 33.5894 74.3828 36.9296 72.4746C40.6951 70.4935 45.1773 70.425 49.001 72.2867C52.3791 74.1629 52.4373 77.2976 49.1263 79.2816C45.3317 81.2452 40.8306 81.2831 37.0039 79.385H37.0053Z" fill="#445964"/>
<path d="M36.7762 77.5318C33.3078 75.6046 33.2656 72.3766 36.6757 70.3358C40.565 68.2805 45.2001 68.2032 49.155 70.1261C52.6292 72.0678 52.6874 75.29 49.2613 77.3366C45.3677 79.3861 40.731 79.459 36.7762 77.5318Z" fill="#36464F"/>
<path d="M36.5872 75.6457C32.9994 73.5918 32.9776 70.374 36.4721 68.2822C40.4445 66.1817 45.183 66.1089 49.218 68.0885C52.7694 70.0521 52.8218 73.3456 49.3273 75.4374C45.3564 77.535 40.6237 77.6137 36.5872 75.6457Z" fill="#445964"/>
<path d="M42.1019 20.1114C29.6255 20.2775 19.6444 30.5281 19.8119 43.0045C19.8119 43.0395 19.8134 43.073 19.8134 43.1079C20.0916 61.0775 34.9424 63.8364 35.0895 71.0659C35.2424 72.4628 36.1368 73.6675 37.4289 74.2196C40.9249 75.9268 45.0255 75.8671 48.4705 74.0579C49.7262 73.4578 50.5652 72.2327 50.6715 70.8459C50.5536 63.6048 65.333 60.387 65.0489 42.4015C64.8829 29.925 54.6352 19.9439 42.1573 20.11C42.1384 20.11 42.1209 20.11 42.1034 20.1114H42.1019Z" fill="#BA67C8"/>
<path d="M42.1019 20.1114C29.6255 20.2775 19.6444 30.5281 19.8119 43.0045C19.8119 43.0395 19.8134 43.073 19.8134 43.1079C20.0916 61.0775 34.9424 63.8364 35.0895 71.0659C35.2424 72.4628 36.1368 73.6675 37.4289 74.2196C40.9249 75.9268 45.0255 75.8671 48.4705 74.0579C49.7262 73.4578 50.5652 72.2327 50.6715 70.8459C50.5536 63.6048 65.333 60.387 65.0489 42.4015C64.8829 29.925 54.6352 19.9439 42.1573 20.11C42.1384 20.11 42.1209 20.11 42.1034 20.1114H42.1019Z" fill="#FAFAFA"/>
<path d="M38.808 73.2755C36.5545 71.963 36.4496 69.8523 38.6609 68.5107C41.2552 67.1502 44.3404 67.1036 46.9741 68.384C49.2276 69.6979 49.3179 71.813 47.0455 73.1794C44.4701 74.5166 41.4125 74.5515 38.8065 73.2755H38.808Z" fill="#7D639E"/>
<path d="M45.925 70.205C45.5113 70.2065 45.1704 69.8831 45.1486 69.4708C45.102 65.1183 45.571 60.7745 46.5441 56.5312C46.8165 55.3018 47.1734 54.0942 47.6147 52.9157C46.9199 52.671 46.2527 52.3535 45.6264 51.966C44.4814 51.2813 43.4472 50.4263 42.5601 49.4299C41.705 50.4277 40.7086 51.2945 39.603 52.0039C38.9869 52.3972 38.3313 52.7249 37.6482 52.9842C38.123 54.1539 38.5222 55.3528 38.8397 56.5734C39.9526 60.7905 40.5528 65.127 40.6271 69.4883C40.6183 69.9108 40.2731 70.2472 39.8507 70.2458C39.4282 70.237 39.0917 69.8918 39.0932 69.4694C38.9985 65.245 38.4115 61.0454 37.3437 56.9565C37.0364 55.7431 36.6372 54.5559 36.1478 53.4023C34.6023 53.73 32.9955 53.2828 31.8404 52.2063C30.9591 51.3862 30.7974 50.049 31.4588 49.0424C31.906 48.3447 32.729 47.9849 33.5447 48.132C35.1471 48.722 36.4085 49.9893 36.9941 51.5931C37.6147 51.3658 38.2075 51.0672 38.7596 50.7045C39.8361 50.0257 40.796 49.1779 41.603 48.1932C40.63 46.9856 40.1974 45.4299 40.4071 43.8931C40.6344 42.9579 41.4865 42.3097 42.4494 42.3403C43.4079 42.2776 44.2775 42.8996 44.5281 43.8261C44.799 45.3527 44.4188 46.9244 43.4807 48.1611C44.3125 49.1196 45.2928 49.9397 46.3824 50.5894C46.949 50.9274 47.5521 51.2012 48.1799 51.4066C48.7291 49.7926 49.9498 48.4933 51.5274 47.8465C52.346 47.6921 53.1749 48.0519 53.6206 48.7555C54.3227 49.7329 54.2047 51.0774 53.3438 51.9194C52.2266 53.0323 50.6359 53.5304 49.0831 53.2551C48.63 54.4234 48.263 55.6237 47.9862 56.8458C47.051 60.9682 46.6038 65.1882 46.6519 69.4155C46.665 69.8394 46.3329 70.1948 45.9075 70.2123L45.9221 70.2065L45.925 70.205ZM33.1631 49.6688C32.9795 49.6805 32.8164 49.7912 32.7392 49.9572C32.3692 50.4685 32.812 51.0221 32.9591 51.1721C33.6292 51.7781 34.5338 52.0563 35.4282 51.931C35.0189 50.9332 34.2527 50.1218 33.2811 49.6557L33.1645 49.6674L33.1631 49.6688ZM49.8012 51.7722C50.7058 51.8524 51.6002 51.5377 52.2528 50.9084C52.3824 50.754 52.8224 50.1976 52.4465 49.6863C52.2266 49.392 52.0372 49.3964 51.8901 49.4197C51.3744 49.5202 50.5864 50.2471 49.7998 51.7722H49.8012ZM42.5105 43.9455C42.2294 43.8989 41.9628 44.0883 41.9162 44.3694V44.3709C41.823 45.2565 42.0502 46.1451 42.5586 46.8764C43.0335 46.1262 43.2272 45.2318 43.1063 44.3519C43.0583 44.0708 42.7917 43.8814 42.5105 43.9295C42.5091 43.9295 42.5076 43.9295 42.5062 43.931L42.512 43.9455H42.5105Z" fill="#F0F0F0"/>
<path d="M42.1148 11.5344C41.9895 11.5796 41.8584 11.6029 41.7244 11.6014C40.9072 11.616 40.2327 10.9678 40.2138 10.1506L40.0492 2.44185C40.0259 1.63048 40.6654 0.954586 41.4753 0.932736C41.4826 0.932736 41.4913 0.932736 41.5 0.932736C42.3172 0.918169 42.9917 1.56639 43.0106 2.38358L43.1752 10.0923C43.184 10.7565 42.7513 11.345 42.1148 11.5344Z" fill="#F0F0F0"/>
<path d="M25.7651 16.3093C25.1256 16.5016 24.4381 16.2394 24.0899 15.6698L20.0811 9.07979C19.7009 8.35291 19.9806 7.4556 20.7075 7.07541C21.3703 6.72872 22.1875 6.92829 22.6143 7.54155L26.6158 14.1155C27.0382 14.8147 26.8168 15.7251 26.1191 16.1519C26.0113 16.2262 25.8918 16.2787 25.7651 16.3093Z" fill="#F0F0F0"/>
<path d="M14.0055 28.6226C13.6254 28.742 13.2116 28.6983 12.865 28.5017L6.08998 24.7915C5.37475 24.4011 5.10672 23.5082 5.48983 22.7901C5.88896 22.0734 6.79062 21.8112 7.51313 22.1987L14.2823 25.8928C14.9946 26.2875 15.2568 27.1848 14.8664 27.9001C14.6887 28.2468 14.3785 28.5061 14.0055 28.6211V28.6226Z" fill="#F0F0F0"/>
<path d="M9.95451 45.1631C9.8438 45.2315 9.72144 45.2796 9.59471 45.3058L1.88598 45.4704C1.08336 45.4995 0.411836 44.8717 0.382702 44.0706C0.382702 44.0589 0.382701 44.0472 0.381244 44.0341C0.353567 43.2242 0.987218 42.544 1.79859 42.5163C1.80296 42.5163 1.80734 42.5163 1.81171 42.5163L9.52042 42.2643C10.3405 42.2745 10.9975 42.9475 10.9873 43.7676C10.98 44.4012 10.5707 44.9591 9.97053 45.1587L9.95597 45.1645L9.95451 45.1631Z" fill="#F0F0F0"/>
<path d="M83.4528 43.5316C83.3421 43.6001 83.2197 43.6482 83.093 43.6744L75.3551 43.7632C74.5408 43.7778 73.8708 43.131 73.8547 42.3168C73.8402 41.5039 74.4884 40.8324 75.3012 40.8178L83.0041 40.6387C83.8242 40.6489 84.4797 41.3219 84.471 42.142C84.4637 42.7756 84.0544 43.3335 83.4542 43.5331L83.4528 43.5316Z" fill="#F0F0F0"/>
<path d="M70.9763 27.3596C70.1868 27.5796 69.3681 27.1178 69.1467 26.3283C68.969 25.6932 69.2327 25.0173 69.792 24.6692L76.3878 20.6764C77.0681 20.2525 77.964 20.4608 78.3879 21.1411C78.3922 21.1484 78.3966 21.1571 78.401 21.1644C78.8292 21.8534 78.618 22.7595 77.9305 23.1877C77.9261 23.1906 77.9232 23.1921 77.9188 23.195L71.3288 27.2038C71.2181 27.2708 71.0986 27.3232 70.9748 27.3611L70.9763 27.3596Z" fill="#F0F0F0"/>
<path d="M58.6703 15.5798C57.8837 15.8114 57.0578 15.3613 56.8261 14.5747C56.7154 14.1988 56.7577 13.7953 56.9441 13.4501L60.6892 6.76543C61.1481 6.08516 62.0716 5.90744 62.7504 6.3663C63.3433 6.76688 63.5662 7.5331 63.2807 8.1886L59.5662 14.9476C59.3608 15.2666 59.0403 15.4938 58.6703 15.5798Z" fill="#F0F0F0"/>
</svg>
