<svg width="202" height="296" viewBox="0 0 202 296" fill="none" xmlns="http://www.w3.org/2000/svg">
<path d="M7.51992 136.499L7.48934 125.763L0.275879 121.604L0.305005 132.092V132.331L7.51992 136.499Z" fill="#DFDFDF"/>
<path d="M7.87284 292.873L7.52034 136.499L0.30542 132.332L0.657959 288.467C0.660873 289.492 1.02066 290.215 1.59751 290.569L1.59313 290.572L1.62226 290.589C1.62954 290.593 1.63681 290.599 1.64555 290.604L8.78184 294.949C8.22393 294.588 7.87575 293.878 7.87284 292.872V292.873Z" fill="#7D639E"/>
<path d="M11.2002 294.768C10.9788 294.896 10.7647 294.992 10.5549 295.065C10.7632 294.994 10.9788 294.895 11.2002 294.768Z" fill="#445964"/>
<path d="M10.1 295.172C10.055 295.179 10.0086 295.196 9.96509 295.202C10.0086 295.198 10.0565 295.18 10.1 295.172Z" fill="#445964"/>
<path d="M8.95238 295.053V295.042C8.93912 295.036 8.92292 295.033 8.90967 295.026L8.95238 295.053Z" fill="#445964"/>
<path d="M7.51118 125.743L7.49372 119.558C7.48789 117.45 8.96495 114.886 10.7989 113.827L198.167 5.65012C199.068 5.13008 199.885 5.07618 200.486 5.40539L193.344 1.04119V1.04701C192.738 0.66973 191.891 0.701774 190.952 1.24511L3.58545 109.422C1.75149 110.481 0.274433 113.046 0.28026 115.153L0.297722 121.338L0.30647 121.341L0.277344 121.358L0.278802 121.606L7.49372 125.765L7.51409 125.744L7.51118 125.743Z" fill="#7D639E"/>
<path d="M7.51992 136.499L7.48934 125.763L0.275879 121.604L0.305005 132.092V132.331L7.51992 136.499Z" fill="black" fill-opacity="0.2"/>
<path d="M198.166 5.65011C199.994 4.59402 201.487 5.4447 201.493 7.55251L201.51 13.7375L7.51162 125.743L7.49416 119.558C7.48833 117.45 8.96539 114.886 10.7993 113.827L198.167 5.65011H198.166Z" fill="#9783B1"/>
<path d="M185.606 15.8817C186.586 15.3165 187.383 15.7695 187.386 16.8955C187.389 18.0215 186.597 19.3937 185.618 19.9589C184.637 20.5241 183.841 20.0696 183.838 18.9451C183.835 17.819 184.627 16.4469 185.606 15.8817Z" fill="white"/>
<path d="M191.019 12.7559C191.998 12.1907 192.796 12.6452 192.799 13.7712C192.802 14.8972 192.009 16.2679 191.031 16.8346C190.052 17.3998 189.253 16.9467 189.25 15.8207C189.248 14.6947 190.04 13.3225 191.019 12.7573V12.7559Z" fill="white"/>
<path d="M196.425 9.63403C197.405 9.06738 198.202 9.52186 198.205 10.6479C198.208 11.7739 197.417 13.1446 196.436 13.7113C195.456 14.2764 194.659 13.822 194.656 12.696C194.653 11.57 195.446 10.1978 196.425 9.63257V9.63403Z" fill="white"/>
<path d="M46.5274 97.0845C47.2558 96.6635 47.9317 96.7334 48.2813 97.2753L50.0424 99.9847C50.3905 100.527 51.062 100.607 51.7962 100.183L201.49 13.7568L201.521 24.5071L7.52204 136.512L7.49146 125.762L13.238 122.444C13.9722 122.02 14.6408 121.166 14.9904 120.221L16.7253 115.492C17.0691 114.551 17.7435 113.701 18.4719 113.281L46.5274 97.083V97.0845Z" fill="#DFDFDF"/>
<path d="M201.519 24.4937L201.871 180.866C201.877 182.967 200.394 185.535 198.566 186.591L11.1981 294.768C9.36416 295.827 7.87692 294.973 7.87109 292.873L7.51855 136.499L201.517 24.4937H201.519Z" fill="#BA67C8"/>
<path d="M201.519 24.4937L201.871 180.866C201.877 182.967 200.394 185.535 198.566 186.591L11.1981 294.768C9.36416 295.827 7.87692 294.973 7.87109 292.873L7.51855 136.499L201.517 24.4937H201.519Z" fill="white"/>
<path d="M193.847 20.3627C195.149 19.611 196.204 20.2126 196.208 21.7086C196.212 23.2046 195.165 25.0269 193.861 25.7786L29.6445 120.589C28.3422 121.341 27.2803 120.736 27.2774 119.24C27.273 117.744 28.3276 115.925 29.6299 115.173L193.847 20.3627Z" fill="white"/>
<path d="M10.6231 126.718C10.712 126.667 10.8008 126.656 10.8664 126.702C10.9931 126.787 10.9815 127.034 10.8504 127.254L9.81464 128.945L12.5328 127.375C12.7178 127.268 12.8678 127.353 12.8693 127.56C12.8693 127.772 12.7207 128.03 12.5357 128.136L9.81756 129.707L10.8605 130.198C10.9931 130.266 11.0048 130.499 10.8795 130.723C10.8139 130.843 10.7251 130.936 10.6348 130.989C10.5576 131.034 10.4731 131.054 10.4075 131.024L8.74255 130.225L8.67551 130.16L8.66389 130.139L8.6333 130.005L8.66243 129.838L8.67406 129.81L8.7338 129.673L10.3959 126.954C10.4614 126.847 10.543 126.766 10.6246 126.719L10.6231 126.718Z" fill="#DFDFDF"/>
<path d="M16.5051 123.322C16.5852 123.275 16.6682 123.262 16.7338 123.293L18.3988 124.084L18.4658 124.155L18.4833 124.165L18.508 124.302L18.4847 124.467L18.4672 124.505L18.4075 124.636L16.7454 127.361C16.6799 127.468 16.6027 127.54 16.5182 127.589C16.4293 127.641 16.3449 127.648 16.2793 127.603C16.1526 127.524 16.1584 127.281 16.2953 127.057L17.3267 125.369L14.6085 126.937C14.4293 127.041 14.2793 126.956 14.2793 126.742C14.2779 126.537 14.4279 126.279 14.6071 126.176L17.3252 124.607L16.288 124.111C16.1496 124.047 16.1438 123.81 16.2691 123.58C16.3317 123.462 16.4177 123.37 16.5065 123.319L16.5051 123.322Z" fill="#DFDFDF"/>
<path d="M22.0917 120.095C22.5039 119.856 22.8928 119.791 23.2162 119.886L23.4667 119.555C23.5206 119.482 23.5833 119.425 23.6459 119.389C23.7086 119.352 23.7712 119.336 23.8251 119.347C23.9387 119.364 23.9926 119.483 23.9751 119.645L23.8338 120.668C23.8222 120.784 23.7683 120.905 23.6911 121.012C23.6372 121.077 23.5716 121.143 23.5119 121.178L23.4289 121.213L22.6219 121.438C22.4966 121.469 22.4005 121.408 22.3757 121.271C22.3509 121.134 22.4107 120.955 22.5243 120.808L22.6015 120.701C22.4456 120.701 22.2723 120.754 22.0931 120.857C21.4362 121.236 20.9001 122.165 20.9016 122.92C20.9045 123.682 21.4434 123.982 22.1004 123.603C22.536 123.351 22.9365 122.853 23.1507 122.289C23.2075 122.129 23.3196 121.992 23.4376 121.923C23.4915 121.893 23.5469 121.875 23.5979 121.878C23.7596 121.888 23.8193 122.087 23.7304 122.324C23.4041 123.194 22.7836 123.97 22.1019 124.363C21.0807 124.953 20.2417 124.481 20.2373 123.301C20.2344 122.127 21.0676 120.684 22.0887 120.094L22.0917 120.095Z" fill="#DFDFDF"/>
<path d="M10.6231 126.718C10.712 126.667 10.8008 126.656 10.8664 126.702C10.9931 126.787 10.9815 127.034 10.8504 127.254L9.81464 128.945L12.5328 127.375C12.7178 127.268 12.8678 127.353 12.8693 127.56C12.8693 127.772 12.7207 128.03 12.5357 128.136L9.81756 129.707L10.8605 130.198C10.9931 130.266 11.0048 130.499 10.8795 130.723C10.8139 130.843 10.7251 130.936 10.6348 130.989C10.5576 131.034 10.4731 131.054 10.4075 131.024L8.74255 130.225L8.67551 130.16L8.66389 130.139L8.6333 130.005L8.66243 129.838L8.67406 129.81L8.7338 129.673L10.3959 126.954C10.4614 126.847 10.543 126.766 10.6246 126.719L10.6231 126.718Z" fill="black"/>
<path d="M16.5051 123.322C16.5852 123.275 16.6682 123.262 16.7338 123.293L18.3988 124.084L18.4658 124.155L18.4833 124.165L18.508 124.302L18.4847 124.467L18.4672 124.505L18.4075 124.636L16.7454 127.361C16.6799 127.468 16.6027 127.54 16.5182 127.589C16.4293 127.641 16.3449 127.648 16.2793 127.603C16.1526 127.524 16.1584 127.281 16.2953 127.057L17.3267 125.369L14.6085 126.937C14.4293 127.041 14.2793 126.956 14.2793 126.742C14.2779 126.537 14.4279 126.279 14.6071 126.176L17.3252 124.607L16.288 124.111C16.1496 124.047 16.1438 123.81 16.2691 123.58C16.3317 123.462 16.4177 123.37 16.5065 123.319L16.5051 123.322Z" fill="black"/>
<path d="M22.0917 120.095C22.5039 119.856 22.8928 119.791 23.2162 119.886L23.4667 119.555C23.5206 119.482 23.5833 119.425 23.6459 119.389C23.7086 119.352 23.7712 119.336 23.8251 119.347C23.9387 119.364 23.9926 119.483 23.9751 119.645L23.8338 120.668C23.8222 120.784 23.7683 120.905 23.6911 121.012C23.6372 121.077 23.5716 121.143 23.5119 121.178L23.4289 121.213L22.6219 121.438C22.4966 121.469 22.4005 121.408 22.3757 121.271C22.3509 121.134 22.4107 120.955 22.5243 120.808L22.6015 120.701C22.4456 120.701 22.2723 120.754 22.0931 120.857C21.4362 121.236 20.9001 122.165 20.9016 122.92C20.9045 123.682 21.4434 123.982 22.1004 123.603C22.536 123.351 22.9365 122.853 23.1507 122.289C23.2075 122.129 23.3196 121.992 23.4376 121.923C23.4915 121.893 23.5469 121.875 23.5979 121.878C23.7596 121.888 23.8193 122.087 23.7304 122.324C23.4041 123.194 22.7836 123.97 22.1019 124.363C21.0807 124.953 20.2417 124.481 20.2373 123.301C20.2344 122.127 21.0676 120.684 22.0887 120.094L22.0917 120.095Z" fill="black"/>
<path d="M121.078 110.993L121.378 216.977L19.0393 276.063L18.7393 170.078L121.078 110.993Z" fill="white"/>
<path d="M106.84 141.762L60.746 215.071L60.8188 233.235L69.687 215.61L60.8188 233.235L54.1501 214.677L106.84 141.762Z" fill="#52307D"/>
<path d="M60.7461 215.071L69.6871 215.61L60.8189 233.235L60.7461 215.071Z" fill="#7D639E"/>
<path d="M106.839 141.762L54.1499 214.677L32.1162 213.346L106.839 141.762Z" fill="#7D639E"/>
<path d="M60.7461 215.071L106.84 141.762L97.2037 217.269L69.6871 215.61L60.7461 215.071Z" fill="#9783B1"/>
<path d="M192.666 34.1966C194.535 33.1172 196.051 33.9824 196.059 36.1296C196.065 38.2767 194.557 40.8871 192.689 41.9665L45.6294 126.928C43.7605 128.008 42.2383 127.146 42.2324 124.998C42.2266 122.851 43.7386 120.238 45.6075 119.159L192.668 34.1966H192.666Z" fill="#B1A2C5"/>
<path d="M34.9697 125.089C36.8386 124.009 38.355 124.875 38.3623 127.022C38.3681 129.169 36.8605 131.779 34.993 132.859L21.9063 140.599C20.0374 141.679 18.5151 140.817 18.5093 138.669C18.5035 136.522 20.0155 133.909 21.8844 132.83L34.9712 125.089H34.9697Z" fill="#9783B1"/>
<path d="M47.0559 132.783C48.9249 131.704 50.4412 132.569 50.4485 134.716C50.4543 136.863 48.9467 139.474 47.0792 140.553L21.5874 155.432C19.7185 156.511 18.1963 155.649 18.1904 153.502C18.1846 151.354 19.6966 148.741 21.5656 147.662L47.0574 132.783H47.0559Z" fill="#BA67C8"/>
<path d="M83.697 111.457C85.5659 110.378 87.0823 111.243 87.0896 113.39C87.0954 115.537 85.5878 118.149 83.7203 119.227L58.2285 134.106C56.3596 135.185 54.8374 134.323 54.8316 132.176C54.8257 130.028 56.3377 127.415 58.2067 126.336L83.6985 111.457H83.697Z" fill="#BA67C8"/>
<path d="M120.339 90.13C122.208 89.0506 123.724 89.9159 123.732 92.063C123.738 94.2102 122.23 96.8205 120.362 97.8999L94.8706 112.778C93.0017 113.858 91.4795 112.995 91.4736 110.848C91.4678 108.701 92.9798 106.088 94.8488 105.009L120.341 90.13H120.339Z" fill="#BA67C8"/>
<path d="M156.981 68.8031C158.85 67.7237 160.366 68.589 160.374 70.7361C160.379 72.8833 158.872 75.4951 157.004 76.573L131.512 91.4515C129.645 92.5309 128.123 91.6685 128.117 89.5214C128.111 87.3743 129.623 84.761 131.492 83.6816L156.984 68.8031H156.981Z" fill="#BA67C8"/>
<path d="M193.623 47.4773C195.492 46.3979 197.008 47.2632 197.015 49.4103C197.021 51.5575 195.514 54.1678 193.646 55.2472L168.154 70.1257C166.287 71.2051 164.763 70.3428 164.759 68.1956C164.753 66.0485 166.265 63.4352 168.134 62.3558L193.626 47.4773H193.623Z" fill="#BA67C8"/>
<path d="M47.0559 132.783C48.9249 131.704 50.4412 132.569 50.4485 134.716C50.4543 136.863 48.9467 139.474 47.0792 140.553L21.5874 155.432C19.7185 156.511 18.1963 155.649 18.1904 153.502C18.1846 151.354 19.6966 148.741 21.5656 147.662L47.0574 132.783H47.0559Z" fill="white"/>
<path d="M83.697 111.457C85.5659 110.378 87.0823 111.243 87.0896 113.39C87.0954 115.537 85.5878 118.149 83.7203 119.227L58.2285 134.106C56.3596 135.185 54.8374 134.323 54.8316 132.176C54.8257 130.028 56.3377 127.415 58.2067 126.336L83.6985 111.457H83.697Z" fill="white"/>
<path d="M120.339 90.13C122.208 89.0506 123.724 89.9159 123.732 92.063C123.738 94.2102 122.23 96.8205 120.362 97.8999L94.8706 112.778C93.0017 113.858 91.4795 112.995 91.4736 110.848C91.4678 108.701 92.9798 106.088 94.8488 105.009L120.341 90.13H120.339Z" fill="white"/>
<path d="M156.981 68.8031C158.85 67.7237 160.366 68.589 160.374 70.7361C160.379 72.8833 158.872 75.4951 157.004 76.573L131.512 91.4515C129.645 92.5309 128.123 91.6685 128.117 89.5214C128.111 87.3743 129.623 84.761 131.492 83.6816L156.984 68.8031H156.981Z" fill="white"/>
<path d="M193.623 47.4773C195.492 46.3979 197.008 47.2632 197.015 49.4103C197.021 51.5575 195.514 54.1678 193.646 55.2472L168.154 70.1257C166.287 71.2051 164.763 70.3428 164.759 68.1956C164.753 66.0485 166.265 63.4352 168.134 62.3558L193.626 47.4773H193.623Z" fill="white"/>
<path d="M168.843 85.1642L168.861 91.744L132.413 112.844L132.396 106.264L168.843 85.1642Z" fill="#BA67C8"/>
<path d="M170.072 119.037L170.083 123.061L132.504 144.995L132.492 140.97L170.072 119.037Z" fill="#BA67C8"/>
<path d="M177.945 106.77L177.957 110.784L132.482 136.954L132.47 132.939L177.945 106.77Z" fill="#BA67C8"/>
<path d="M153.722 112.617L153.732 116.632L132.459 128.914L132.448 124.9L153.722 112.617Z" fill="#BA67C8"/>
<path d="M177.899 90.6893L177.91 94.7039L132.436 120.875L132.424 116.86L177.899 90.6893Z" fill="#BA67C8"/>
<path d="M168.843 85.1642L168.861 91.744L132.413 112.844L132.396 106.264L168.843 85.1642Z" fill="white"/>
<path d="M170.072 119.037L170.083 123.061L132.504 144.995L132.492 140.97L170.072 119.037Z" fill="white"/>
<path d="M177.945 106.77L177.957 110.784L132.482 136.954L132.47 132.939L177.945 106.77Z" fill="white"/>
<path d="M153.722 112.617L153.732 116.632L132.459 128.914L132.448 124.9L153.722 112.617Z" fill="white"/>
<path d="M177.899 90.6893L177.91 94.7039L132.436 120.875L132.424 116.86L177.899 90.6893Z" fill="white"/>
<path d="M176.019 166.34L176.03 170.511L133.756 195.061L133.743 190.891L176.019 166.34Z" fill="#9783B1"/>
<path d="M195.063 147.67L195.075 151.829L133.734 187.499L133.723 183.338L195.063 147.67Z" fill="#9783B1"/>
<path d="M176.019 166.34L176.03 170.511L133.756 195.061L133.743 190.891L176.019 166.34Z" fill="#9783B1" fill-opacity="0.101961"/>
<path d="M195.063 147.67L195.075 151.829L133.734 187.499L133.723 183.338L195.063 147.67Z" fill="#9783B1" fill-opacity="0.101961"/>
</svg>
