<svg width="259" height="366" viewBox="0 0 259 366" fill="none" xmlns="http://www.w3.org/2000/svg">
<path d="M170.93 142.182C184.514 151.614 199.81 158.138 211.153 170.784C232.339 194.404 232.835 232.406 216.193 259.421C199.554 286.437 168.607 302.668 137.096 306.383C104.035 310.281 69.3417 301.145 43.4042 280.278C17.4666 259.411 0.963949 226.807 0.977059 193.518C0.988712 160.229 18.0405 127.079 45.9242 108.896C71.3636 92.304 107.917 87.5727 133.44 106.556C146.344 116.154 154.948 130.319 167.819 139.945C168.843 140.711 169.88 141.455 170.927 142.182H170.93Z" fill="#445964"/>
<path d="M170.93 142.182C184.514 151.614 199.81 158.138 211.153 170.784C232.339 194.404 232.835 232.406 216.193 259.421C199.554 286.437 168.607 302.668 137.096 306.383C104.035 310.281 69.3417 301.145 43.4042 280.278C17.4666 259.411 0.963949 226.807 0.977059 193.518C0.988712 160.229 18.0405 127.079 45.9242 108.896C71.3636 92.304 107.917 87.5727 133.44 106.556C146.344 116.154 154.948 130.319 167.819 139.945C168.843 140.711 169.88 141.455 170.927 142.182H170.93Z" fill="black" fill-opacity="0.2"/>
<path d="M170.93 142.182C184.514 151.614 199.81 158.138 211.153 170.784C232.339 194.404 232.835 232.406 216.193 259.421C199.554 286.437 168.607 302.668 137.096 306.383C104.035 310.281 69.3417 301.145 43.4042 280.278C17.4666 259.411 0.963949 226.807 0.977059 193.518C0.988712 160.229 18.0405 127.079 45.9242 108.896C71.3636 92.304 107.917 87.5727 133.44 106.556C146.344 116.154 154.948 130.319 167.819 139.945C168.843 140.711 169.88 141.455 170.927 142.182H170.93Z" fill="white" fill-opacity="0.101961"/>
<path d="M165.397 280.571C165.366 280.345 165.334 280.121 165.302 279.895C163.142 264.762 151.344 252.99 136.332 250.109C123.255 247.599 110.617 242.786 99.2232 235.896C91.1139 230.991 83.4518 224.981 74.3548 222.323C65.96 219.87 55.5084 220.248 47.552 223.878C55.1981 215.851 68.3038 212.318 78.7787 215.948C71.5289 204.851 65.1501 192.896 62.6504 179.88C60.1522 166.861 61.9279 152.576 69.7765 141.894C76.4422 132.823 87.2915 126.964 98.5312 126.363C109.771 125.763 121.183 130.431 128.778 138.739C136.552 147.243 140.935 159.211 146.041 169.539C149.707 176.958 153.5 184.55 159.546 190.203C168.667 198.735 181.783 201.811 191.238 209.972C201.961 219.224 206.584 234.021 206.634 248.183C206.667 257.74 204.867 267.148 202.484 276.435C191.626 287.001 178.191 294.971 163.704 300.147C165.894 293.987 166.294 287.098 165.397 280.569V280.571Z" fill="black" fill-opacity="0.101961"/>
<path d="M18.7242 188.952C19.2806 160.625 32.7447 133.055 54.7434 115.2C68.2016 104.278 84.5615 97.2379 101.608 94.6202C104.771 94.932 107.902 95.4564 110.98 96.192C91.201 97.3501 71.8142 104.644 56.3588 117.189C34.9384 134.572 21.8284 161.419 21.2865 189.001C20.6776 219.982 35.8328 251.561 61.8257 273.475C82.1959 290.651 109.255 302.036 138.997 306.135C138.364 306.221 137.729 306.309 137.095 306.383C134.421 306.698 131.736 306.919 129.047 307.065C102.623 301.939 78.6926 291.047 60.1739 275.434C33.5968 253.028 18.1007 220.697 18.7242 188.952Z" fill="#FAFAFA"/>
<path d="M200.021 270.217C198.639 275.733 198.365 285.676 198.365 285.676L194.698 284.294C191.143 282.954 187.131 283.867 184.506 286.614L184.325 286.804C182.96 288.231 180.716 288.333 179.227 287.035C178.455 286.361 177.998 285.395 177.964 284.37L177.472 268.759L200.02 270.217H200.021Z" fill="#FFA8A7"/>
<path d="M185.864 328.234C193.473 336.376 207.488 343.492 217.669 336.548L216.527 339.139C206.346 346.083 192.331 338.967 184.72 330.826C177.111 322.684 182.049 317.044 175.199 309.822C170.732 305.401 169.278 301.025 169.278 301.025C169.583 300.247 169.874 299.233 170.232 298.071C171.135 300.103 173.159 304.081 176.341 307.232C183.191 314.454 178.253 320.093 185.864 328.236V328.234Z" fill="#F4F4F4"/>
<path d="M173.983 289.566C175.657 286.935 176.213 285.117 176.375 284.014C176.513 283.072 177.074 282.253 177.882 281.751L177.965 284.37C177.997 285.395 178.455 286.361 179.228 287.036C180.716 288.333 182.962 288.231 184.327 286.804L184.507 286.615C187.132 283.867 191.144 282.954 194.7 284.294L198.427 285.698C199.566 286.128 200.308 287.223 200.28 288.441C200.041 299.117 205.029 313.295 210.257 321.085C215.635 323.313 220.277 330.64 217.907 336.012L217.671 336.548C207.491 343.492 193.476 336.376 185.866 328.235C178.255 320.093 183.193 314.453 176.344 307.231C173.161 304.08 171.138 300.102 170.235 298.07C170.953 295.736 171.954 292.757 173.986 289.564L173.983 289.566Z" fill="#7D639E"/>
<path d="M188.871 304.976C188.239 305.296 187.464 305.025 187.145 304.393C186.829 303.768 187.053 302.987 187.675 302.667C193.53 299.642 198.551 300.647 202.295 302.69C202.522 303.531 202.764 304.368 203.02 305.2C198.708 303.009 194.334 302.214 188.871 304.976Z" fill="white"/>
<path d="M186.997 299.205C186.365 299.525 185.592 299.254 185.271 298.622C184.955 297.997 185.179 297.216 185.801 296.896C191.624 293.888 196.962 294.8 201.013 297.017C201.166 297.886 201.346 298.76 201.539 299.636C197.099 297.293 192.626 296.358 186.997 299.205Z" fill="white"/>
<path d="M190.928 310.72C190.296 311.04 189.521 310.769 189.202 310.137C188.886 309.512 189.11 308.731 189.732 308.411C195.425 305.468 200.331 306.339 204.039 308.27C204.363 309.174 204.704 310.06 205.055 310.934C200.75 308.752 196.382 307.964 190.928 310.721V310.72Z" fill="white"/>
<path d="M210.254 321.085C215.632 323.312 220.274 330.64 217.904 336.012L217.668 336.548C207.638 343.388 193.9 336.581 186.217 328.593C192.624 316.028 206.019 319.161 210.254 321.085Z" fill="white"/>
<path d="M193.181 316.327C192.549 316.648 191.775 316.377 191.455 315.745C191.139 315.12 191.363 314.339 191.985 314.019C197.692 311.069 202.608 311.95 206.322 313.89C206.776 314.887 207.245 315.841 207.723 316.759C203.283 314.418 198.811 313.483 193.181 316.327Z" fill="white"/>
<path d="M216.019 301.254C216.981 306.859 220.743 316.067 220.743 316.067L216.831 316.283C213.037 316.491 209.735 318.947 208.443 322.519L208.354 322.763C207.683 324.621 205.67 325.62 203.783 325.031C202.804 324.727 201.996 324.028 201.552 323.103L194.8 309.02L216.019 301.253V301.254Z" fill="#FFA8A7"/>
<path d="M226.482 360.05C236.731 364.427 252.425 365.281 258.938 354.819V357.651C252.425 368.114 236.732 367.259 226.482 362.882C216.232 358.504 218.474 351.351 209.293 347.508C203.421 345.266 200.326 341.85 200.326 341.85C200.291 341.015 200.148 339.97 200.007 338.762C201.653 340.257 205.109 343.08 209.294 344.678C218.476 348.522 216.234 355.674 226.483 360.051L226.482 360.05Z" fill="#F4F4F4"/>
<path d="M200.005 329.465C200.474 326.383 200.251 324.495 199.953 323.42C199.698 322.502 199.881 321.527 200.419 320.74L201.552 323.104C201.995 324.029 202.804 324.727 203.784 325.033C205.669 325.62 207.682 324.62 208.355 322.763L208.444 322.519C209.737 318.945 213.038 316.491 216.831 316.282L220.808 316.064C222.024 315.997 223.145 316.701 223.611 317.825C227.701 327.688 237.987 338.648 245.914 343.665C251.732 343.531 258.938 348.363 258.938 354.235V354.819C252.425 365.281 236.732 364.427 226.482 360.05C216.233 355.672 218.474 348.52 209.293 344.676C205.108 343.078 201.651 340.255 200.005 338.76C199.72 336.335 199.434 333.206 200.004 329.464L200.005 329.465Z" fill="#7D639E"/>
<path d="M219.848 337.556C219.398 338.103 218.581 338.169 218.035 337.72C217.493 337.276 217.383 336.472 217.822 335.927C221.957 330.797 226.957 329.688 231.207 330.048C231.755 330.725 232.313 331.394 232.884 332.051C228.055 331.787 223.732 332.824 219.848 337.557V337.556Z" fill="white"/>
<path d="M215.804 333.031C215.354 333.579 214.536 333.645 213.989 333.196C213.448 332.752 213.338 331.948 213.776 331.403C217.89 326.3 223.143 324.979 227.743 325.374C228.234 326.106 228.751 326.833 229.281 327.557C224.273 327.208 219.804 328.156 215.802 333.031H215.804Z" fill="white"/>
<path d="M224.048 341.98C223.597 342.527 222.782 342.593 222.233 342.144C221.692 341.7 221.581 340.896 222.021 340.351C226.043 335.362 230.882 334.178 235.054 334.446C235.716 335.143 236.386 335.815 237.059 336.473C232.24 336.215 227.925 337.256 224.048 341.981V341.98Z" fill="white"/>
<path d="M245.913 343.665C251.731 343.531 258.937 348.363 258.937 354.235V354.819C252.521 365.127 237.204 364.443 226.95 360.234C227.741 346.152 241.261 343.613 245.912 343.664L245.913 343.665Z" fill="white"/>
<path d="M228.371 346.204C227.921 346.752 227.104 346.817 226.556 346.369C226.015 345.924 225.905 345.12 226.345 344.576C230.377 339.573 235.23 338.395 239.41 338.673C240.228 339.401 241.041 340.083 241.849 340.73C236.843 340.38 232.372 341.329 228.371 346.206V346.204Z" fill="white"/>
<path d="M155.806 167.935L207.109 196.518C216.644 201.83 221.724 212.636 219.731 223.367L209.775 276.992L217.942 302.935C210.896 312.383 194.721 312.864 194.721 312.864C185.7 294.767 179.081 287.081 173.956 271.921C168.832 256.761 165.416 246.298 165.416 246.298L122.808 234.653C102.891 229.21 88.2035 212.215 85.8903 191.698C85.1648 185.255 85.1313 180.856 85.1313 180.856L155.808 167.935H155.806Z" fill="#263138"/>
<path d="M155.417 182.349C155.43 188.018 153.357 193.668 149.679 197.984L185.88 220.645C191.193 223.97 195.126 229.101 196.958 235.093L209.771 276.993L198.216 230.33C196.886 224.962 193.508 220.33 188.804 217.422L155.376 196.761C158.792 188.22 155.414 182.349 155.414 182.349H155.417Z" fill="black" fill-opacity="0.2"/>
<path d="M114.872 202.381C114.856 202.608 114.869 202.835 114.938 203.06C114.942 203.076 114.942 203.093 114.948 203.109C115.006 203.288 115.099 203.463 115.212 203.635C115.225 203.654 115.229 203.673 115.242 203.692C115.366 203.871 115.523 204.043 115.707 204.209C115.717 204.219 115.724 204.229 115.735 204.24C115.933 204.414 116.163 204.579 116.426 204.733L153.971 226.551C154.299 226.742 154.667 226.894 155.047 227.025C155.183 227.071 155.321 227.111 155.461 227.152C155.642 227.203 155.821 227.249 156.007 227.287C156.227 227.332 156.449 227.373 156.674 227.402C156.728 227.408 156.779 227.418 156.833 227.424C157.138 227.456 157.445 227.472 157.752 227.475C157.802 227.475 157.85 227.476 157.899 227.475C158.202 227.472 158.507 227.456 158.807 227.424C158.852 227.42 158.897 227.414 158.942 227.409C159.24 227.373 159.532 227.323 159.819 227.258C159.872 227.246 159.924 227.232 159.977 227.22C160.236 227.156 160.488 227.079 160.731 226.99C160.776 226.974 160.823 226.961 160.867 226.945C161.16 226.831 161.439 226.701 161.697 226.551L223.638 190.79C223.906 190.636 224.139 190.47 224.34 190.293C224.41 190.232 224.453 190.165 224.516 190.101C224.631 189.983 224.755 189.867 224.842 189.743C224.896 189.667 224.921 189.587 224.963 189.508C225.027 189.392 225.103 189.275 225.144 189.156C225.173 189.071 225.172 188.985 225.188 188.899C225.21 188.783 225.244 188.668 225.244 188.551V190.748C225.244 190.864 225.21 190.979 225.188 191.096C225.172 191.182 225.173 191.268 225.144 191.352C225.105 191.472 225.027 191.588 224.963 191.705C224.921 191.782 224.896 191.862 224.842 191.938C224.755 192.062 224.633 192.178 224.516 192.296C224.453 192.36 224.411 192.427 224.34 192.489C224.139 192.665 223.904 192.831 223.638 192.985L161.697 228.747C161.438 228.897 161.16 229.026 160.867 229.138C160.823 229.156 160.776 229.168 160.731 229.184C160.488 229.272 160.236 229.35 159.977 229.414C159.924 229.427 159.872 229.44 159.819 229.453C159.532 229.517 159.24 229.568 158.942 229.603C158.897 229.609 158.852 229.613 158.807 229.619C158.507 229.65 158.204 229.667 157.899 229.67C157.85 229.67 157.802 229.67 157.752 229.669C157.445 229.666 157.136 229.651 156.833 229.618C156.779 229.612 156.727 229.602 156.674 229.596C156.449 229.568 156.227 229.526 156.007 229.482C155.821 229.444 155.642 229.396 155.461 229.347C155.321 229.307 155.183 229.267 155.047 229.22C154.666 229.087 154.299 228.937 153.971 228.747L116.426 206.929C116.163 206.776 115.933 206.61 115.735 206.435C115.724 206.425 115.717 206.414 115.707 206.404C115.523 206.238 115.366 206.066 115.242 205.887C115.229 205.868 115.223 205.849 115.212 205.83C115.099 205.658 115.006 205.484 114.948 205.304C114.942 205.288 114.942 205.271 114.938 205.255C114.888 205.09 114.896 204.926 114.89 204.76L114.855 204.764V202.382L114.872 202.381Z" fill="#DFDFDF"/>
<path d="M114.872 202.381C114.856 202.608 114.869 202.835 114.938 203.06C114.942 203.076 114.942 203.093 114.948 203.109C115.006 203.288 115.099 203.463 115.212 203.635C115.225 203.654 115.229 203.673 115.242 203.692C115.366 203.871 115.523 204.043 115.707 204.209C115.717 204.219 115.724 204.229 115.735 204.24C115.933 204.414 116.163 204.579 116.426 204.733L153.971 226.551C154.299 226.742 154.667 226.894 155.047 227.025C155.183 227.071 155.321 227.111 155.461 227.152C155.642 227.203 155.821 227.249 156.007 227.287C156.227 227.332 156.449 227.373 156.674 227.402C156.728 227.408 156.779 227.418 156.833 227.424C157.138 227.456 157.445 227.472 157.752 227.475C157.802 227.475 157.85 227.476 157.899 227.475C158.202 227.472 158.507 227.456 158.807 227.424C158.852 227.42 158.897 227.414 158.942 227.409C159.24 227.373 159.532 227.323 159.819 227.258C159.872 227.246 159.924 227.232 159.977 227.22C160.236 227.156 160.488 227.079 160.731 226.99C160.776 226.974 160.823 226.961 160.867 226.945C161.16 226.831 161.439 226.701 161.697 226.551L223.638 190.79C223.906 190.636 224.139 190.47 224.34 190.293C224.41 190.232 224.453 190.165 224.516 190.101C224.631 189.983 224.755 189.867 224.842 189.743C224.896 189.667 224.921 189.587 224.963 189.508C225.027 189.392 225.103 189.275 225.144 189.156C225.173 189.071 225.172 188.985 225.188 188.899C225.21 188.783 225.244 188.668 225.244 188.551V190.748C225.244 190.864 225.21 190.979 225.188 191.096C225.172 191.182 225.173 191.268 225.144 191.352C225.105 191.472 225.027 191.588 224.963 191.705C224.921 191.782 224.896 191.862 224.842 191.938C224.755 192.062 224.633 192.178 224.516 192.296C224.453 192.36 224.411 192.427 224.34 192.489C224.139 192.665 223.904 192.831 223.638 192.985L161.697 228.747C161.438 228.897 161.16 229.026 160.867 229.138C160.823 229.156 160.776 229.168 160.731 229.184C160.488 229.272 160.236 229.35 159.977 229.414C159.924 229.427 159.872 229.44 159.819 229.453C159.532 229.517 159.24 229.568 158.942 229.603C158.897 229.609 158.852 229.613 158.807 229.619C158.507 229.65 158.204 229.667 157.899 229.67C157.85 229.67 157.802 229.67 157.752 229.669C157.445 229.666 157.136 229.651 156.833 229.618C156.779 229.612 156.727 229.602 156.674 229.596C156.449 229.568 156.227 229.526 156.007 229.482C155.821 229.444 155.642 229.396 155.461 229.347C155.321 229.307 155.183 229.267 155.047 229.22C154.666 229.087 154.299 228.937 153.971 228.747L116.426 206.929C116.163 206.776 115.933 206.61 115.735 206.435C115.724 206.425 115.717 206.414 115.707 206.404C115.523 206.238 115.366 206.066 115.242 205.887C115.229 205.868 115.223 205.849 115.212 205.83C115.099 205.658 115.006 205.484 114.948 205.304C114.942 205.288 114.942 205.271 114.938 205.255C114.888 205.09 114.896 204.926 114.89 204.76L114.855 204.764V202.382L114.872 202.381Z" fill="black" fill-opacity="0.2"/>
<path d="M225.145 189.154C225.106 189.273 225.029 189.39 224.965 189.507C224.922 189.584 224.898 189.664 224.844 189.741C224.756 189.865 224.634 189.981 224.518 190.099C224.455 190.162 224.413 190.231 224.341 190.292C224.14 190.468 223.906 190.634 223.639 190.788L161.698 226.55C161.439 226.7 161.161 226.829 160.868 226.943C160.824 226.961 160.778 226.972 160.733 226.988C160.489 227.076 160.237 227.154 159.978 227.218C159.926 227.232 159.873 227.245 159.821 227.256C159.534 227.32 159.241 227.371 158.944 227.408C158.899 227.414 158.854 227.418 158.808 227.422C158.508 227.453 158.205 227.47 157.901 227.473C157.851 227.473 157.803 227.473 157.754 227.473C157.446 227.47 157.138 227.454 156.835 227.422C156.781 227.417 156.728 227.406 156.676 227.4C156.45 227.371 156.229 227.331 156.009 227.285C155.822 227.248 155.643 227.199 155.462 227.15C155.323 227.111 155.184 227.07 155.049 227.023C154.667 226.891 154.3 226.741 153.972 226.55L116.428 204.732C116.164 204.579 115.934 204.413 115.736 204.238C115.726 204.228 115.718 204.218 115.708 204.207C115.525 204.041 115.367 203.869 115.244 203.69C115.231 203.671 115.225 203.652 115.213 203.633C115.101 203.462 115.008 203.287 114.949 203.108C114.944 203.092 114.944 203.074 114.939 203.058C114.872 202.834 114.858 202.606 114.874 202.379C114.928 201.609 115.449 200.848 116.466 200.26L178.407 164.498C180.542 163.266 183.99 163.266 186.111 164.498L223.654 186.316C224.719 186.934 225.247 187.741 225.247 188.548C225.247 188.665 225.212 188.78 225.191 188.896C225.175 188.982 225.176 189.068 225.147 189.153L225.145 189.154Z" fill="#DFDFDF"/>
<path d="M219.988 188.548L159.813 223.291C159.75 223.328 159.684 223.36 159.575 223.405L159.444 223.45C159.332 223.492 159.214 223.529 158.974 223.587C158.812 223.626 158.649 223.651 158.643 223.657L158.416 223.679C158.255 223.695 158.082 223.703 157.83 223.708H157.776C157.591 223.706 157.405 223.696 157.16 223.667C157.032 223.65 156.907 223.626 156.767 223.597C156.674 223.578 156.28 223.466 156.28 223.466C156.137 223.416 155.993 223.371 155.864 223.293L136.507 212.038L198.667 176.152L219.989 188.548H219.988Z" fill="#DFDFDF"/>
<path d="M157.761 223.71C157.789 223.71 157.803 223.708 157.829 223.708H157.851L157.761 223.71Z" fill="#263138"/>
<path d="M162.742 178.993L174.063 185.651C174.819 186.097 174.815 187.191 174.056 187.631L157.128 197.403C156.541 197.743 155.817 197.74 155.233 197.396L143.913 190.738C143.157 190.293 143.161 189.198 143.92 188.76L160.847 178.987C161.434 178.647 162.158 178.65 162.742 178.994V178.993Z" fill="#DFDFDF"/>
<path d="M219.988 188.548L159.813 223.291C159.75 223.328 159.684 223.36 159.575 223.405L159.444 223.45C159.332 223.492 159.214 223.529 158.974 223.587C158.812 223.626 158.649 223.651 158.643 223.657L158.416 223.679C158.255 223.695 158.082 223.703 157.83 223.708H157.776C157.591 223.706 157.405 223.696 157.16 223.667C157.032 223.65 156.907 223.626 156.767 223.597C156.674 223.578 156.28 223.466 156.28 223.466C156.137 223.416 155.993 223.371 155.864 223.293L136.507 212.038L198.667 176.152L219.989 188.548H219.988Z" fill="black" fill-opacity="0.4"/>
<path d="M162.742 178.993L174.063 185.651C174.819 186.097 174.815 187.191 174.056 187.631L157.128 197.403C156.541 197.743 155.817 197.74 155.233 197.396L143.913 190.738C143.157 190.293 143.161 189.198 143.92 188.76L160.847 178.987C161.434 178.647 162.158 178.65 162.742 178.994V178.993Z" fill="black" fill-opacity="0.4"/>
<path d="M158.209 224.328L164.621 183.553C164.974 181.314 166.315 179.353 168.275 178.214L230.644 141.952C231.196 141.63 231.793 141.636 232.3 141.847L232.303 141.837L233.786 142.577L233.286 142.765C233.443 143.088 233.513 143.464 233.449 143.87L227.037 184.646C226.684 186.884 225.343 188.845 223.383 189.984L161.013 226.247C160.88 226.324 160.744 226.368 160.607 226.41L160.665 227.011L159.229 226.304L159.256 226.299C158.56 225.96 158.069 225.218 158.209 224.327V224.328Z" fill="#DFDFDF"/>
<path d="M158.209 224.328L164.621 183.553C164.974 181.314 166.315 179.353 168.275 178.214L230.644 141.952C231.196 141.63 231.793 141.636 232.3 141.847L232.303 141.837L233.786 142.577L233.286 142.765C233.443 143.088 233.513 143.464 233.449 143.87L227.037 184.646C226.684 186.884 225.343 188.845 223.383 189.984L161.013 226.247C160.88 226.324 160.744 226.368 160.607 226.41L160.665 227.011L159.229 226.304L159.256 226.299C158.56 225.96 158.069 225.218 158.209 224.327V224.328Z" fill="black" fill-opacity="0.301961"/>
<path d="M169.527 178.841L231.897 142.578C233.267 141.782 234.949 142.932 234.703 144.497L228.291 185.272C227.938 187.511 226.596 189.472 224.637 190.611L162.268 226.873C160.898 227.67 159.217 226.519 159.463 224.955L165.875 184.18C166.227 181.941 167.569 179.98 169.528 178.841H169.527Z" fill="#DFDFDF"/>
<path d="M199.755 179.896C196.733 181.641 193.972 185.63 193.565 188.81C193.159 191.992 195.261 193.173 198.282 191.429C201.29 189.693 204.065 185.695 204.471 182.515C204.878 179.333 202.763 178.159 199.755 179.896Z" fill="white"/>
<path d="M162.927 117.949L179.826 131.675L190.969 113.595L176.947 97.8019C164.624 103.263 162.927 117.949 162.927 117.949Z" fill="#F28E8E"/>
<path d="M138.13 71.2581C151.414 69.7578 152.644 72.7104 161.253 80.8285C169.864 88.9465 178.572 98.0974 178.572 98.0974C165.288 104.591 163.813 120.384 163.813 120.384C156.58 114.776 150.459 110.348 150.459 110.348L138.13 71.2596V71.2581Z" fill="#445964"/>
<path d="M138.13 71.2581C151.414 69.7578 152.644 72.7104 161.253 80.8285C169.864 88.9465 178.572 98.0974 178.572 98.0974C165.288 104.591 163.813 120.384 163.813 120.384C156.58 114.776 150.459 110.348 150.459 110.348L138.13 71.2596V71.2581Z" fill="white" fill-opacity="0.501961"/>
<path d="M89.6199 81.8117C108.511 72.9551 122.682 71.9208 138.13 71.2581C161.253 86.1409 152.595 98.5387 152.202 118.415C151.808 138.291 147.479 150.296 161.255 170.96C130.949 195.166 92.6716 187.512 83.5208 181.696C77.6169 126.68 79.346 86.055 89.6213 81.8117H89.6199Z" fill="#445964"/>
<path d="M89.6199 81.8117C108.511 72.9551 122.682 71.9208 138.13 71.2581C161.253 86.1409 152.595 98.5387 152.202 118.415C151.808 138.291 147.479 150.296 161.255 170.96C130.949 195.166 92.6716 187.512 83.5208 181.696C77.6169 126.68 79.346 86.055 89.6213 81.8117H89.6199Z" fill="white" fill-opacity="0.701961"/>
<path d="M147.213 41.1633C150.122 38.4393 151.967 34.6053 152.28 30.633C152.591 26.6592 151.369 22.5848 148.922 19.4399C150.552 18.3794 152.06 16.7727 152.622 14.9111C153.164 13.1179 152.507 11.0247 151.037 9.86371C149.567 8.70274 147.379 8.54542 145.76 9.48643C146.487 6.71875 144.788 3.30431 142.153 2.18704C139.518 1.07123 136.143 2.16082 134.658 4.60803C134.54 2.78719 133.06 1.21106 131.267 0.8702C129.474 0.529338 127.623 1.08725 125.987 1.89716C124.351 2.70707 122.848 3.76899 121.194 4.53957C118.4 5.84184 115.295 6.26572 112.274 6.87898C109.252 7.49224 106.164 8.36188 103.815 10.3575C101.465 12.3532 99.7069 16.5309 101.525 19.6933C100.518 18.7086 99.0339 18.1027 97.634 18.2367C96.2327 18.3707 94.9071 19.15 94.1074 20.3081C96.1701 21.2418 98.1817 22.2731 100.243 23.2068C98.2109 22.5936 95.5233 24.3212 94.7221 26.2877C93.921 28.2542 94.1613 30.4742 94.4963 32.5718C95.7738 40.5369 98.2677 48.2995 101.783 55.5596C103.601 59.3135 106.027 63.2261 109.982 64.5517L147.21 41.1618L147.213 41.1633Z" fill="#36464F"/>
<path d="M147.002 21.6687C143.751 25.0059 138.415 27.1939 133.755 27.2448C129.096 27.2958 124.585 25.759 120.093 24.5209C119.705 26.6855 118.604 28.7161 117.003 30.2237C115.402 31.7314 112.831 32.738 110.646 32.9943C111.289 37.1939 111.273 41.4955 110.597 45.6907C110.454 46.5807 109.854 47.3906 108.989 47.6426C107.475 48.084 106.471 46.5327 105.734 45.277C104.895 43.8495 103.86 42.4875 102.452 41.6135C101.045 40.7409 99.2114 40.4263 97.7124 41.1284C96.4874 41.7023 95.6177 42.8866 95.2128 44.1787C94.8078 45.4693 94.8238 46.8604 95.0161 48.1991C95.3381 50.4322 96.1654 52.6274 97.625 54.3463C99.0846 56.0651 101.216 57.2684 103.471 57.3587C105.724 57.4505 107.969 56.5429 109.088 54.5852L109.187 54.996C109.35 55.6689 109.561 56.3215 109.8 56.9581C111.807 62.2852 116.406 66.2779 122.071 67.4636C124.917 68.0594 128.08 68.629 131.302 69.1184C132.887 69.3588 134.48 69.5845 136.068 69.7725C142.125 70.4906 147.7 66.3842 148.763 60.3784C150.935 48.1117 151.656 33.8203 147 21.6658L147.002 21.6687Z" fill="#FFA8A7"/>
<path d="M109.802 56.9595V78.3347C113.752 83.771 120.295 87.4477 127.003 87.8614C129.184 87.9954 131.56 87.7448 133.183 86.2809C134.492 85.0995 135.101 83.1942 134.722 81.4724C134.443 80.2036 133.636 79.0718 132.556 78.3536C131.786 77.8409 131.305 76.996 131.305 76.0696V69.1183C128.083 68.6289 124.92 68.0593 122.074 67.4635C116.409 66.2778 111.81 62.2836 109.803 56.958L109.802 56.9595Z" fill="#FFA8A7"/>
<path d="M124.085 72.1701C126.445 72.8227 128.869 73.1811 131.304 73.4505V69.1199C128.082 68.6304 124.92 68.0609 122.073 67.4651C116.746 66.3507 112.392 62.7367 110.219 57.8845C110.782 61.2101 112.227 64.393 114.547 66.8314C117.088 69.5044 120.531 71.1854 124.085 72.1701Z" fill="black" fill-opacity="0.2"/>
<path d="M136.311 39.9454L144.156 49.4473L136.958 51.9907L136.311 39.9454Z" fill="#F28E8E"/>
<path d="M125.228 41.1339C125.221 42.324 126.179 43.2956 127.369 43.3029C128.559 43.3102 129.531 42.3517 129.538 41.1616C129.545 39.9715 128.587 38.9999 127.397 38.9926C126.207 38.9853 125.235 39.9438 125.228 41.1339Z" fill="#36464F"/>
<path d="M143.325 40.5498C143.317 41.7399 144.276 42.71 145.466 42.7188C146.656 42.7261 147.626 41.7676 147.635 40.5775C147.642 39.3874 146.684 38.4158 145.493 38.4085C144.303 38.4012 143.332 39.3597 143.325 40.5498Z" fill="#36464F"/>
<path d="M142.186 30.9868C144.11 31.2039 146.033 31.4224 147.957 31.6394C147.837 30.4173 146.741 29.3364 145.536 29.1005C144.331 28.8645 142.757 29.8987 142.186 30.9868Z" fill="#36464F"/>
<path d="M128.802 30.2582C127.04 31.0594 125.277 31.8606 123.515 32.6603C123.251 31.4615 123.96 30.0936 125.034 29.4979C126.108 28.9021 127.924 29.4003 128.802 30.2582Z" fill="#36464F"/>
<path d="M129.199 55.9937C131.328 56.706 133.457 57.4197 135.586 58.1306C134.89 59.6091 132.765 60.4904 131.2 60.0199C129.636 59.5494 128.963 57.6106 129.199 55.9937Z" fill="#F28E8E"/>
<path d="M129.199 55.9937C131.328 56.706 133.457 57.4197 135.586 58.1306C134.89 59.6091 132.765 60.4904 131.2 60.0199C129.636 59.5494 128.963 57.6106 129.199 55.9937Z" fill="black" fill-opacity="0.301961"/>
<path d="M133.311 59.9441C132.606 60.1655 131.856 60.2165 131.2 60.0198C129.972 59.6498 129.302 58.3752 129.18 57.0628C130.034 56.9564 130.924 57.1225 131.655 57.577C132.497 58.1014 133.085 58.9797 133.311 59.9441Z" fill="#F28E8E"/>
<path d="M149.204 86.2357L143.757 88.7324C142.634 89.2481 142.162 90.5912 142.717 91.6953C143.151 92.5591 144.101 93.034 145.052 92.8636L158.46 90.4586L154.371 85.2539L149.205 86.2342L149.204 86.2357Z" fill="#F28E8E"/>
<path d="M161.215 91.0295L178.158 130.938C180.63 136.76 187.271 139.581 193.176 137.315C200.607 134.465 203.112 125.205 198.132 118.998L170.451 84.4963C169.494 83.3048 168.375 82.2516 167.127 81.3703L158.685 75.4082C156.309 73.7301 153.562 72.6536 150.679 72.2705L146.563 69.2479C145.432 68.419 143.958 68.2209 142.649 68.7249L136.309 71.1634C137.139 72.9755 139.139 73.9427 141.075 73.4679L143.603 72.8473L146.557 75.0251L142.714 80.3696C141.661 81.8335 141.961 83.8685 143.39 84.9669L150.649 90.5445C151.314 91.0558 152.185 91.2131 152.988 90.9684C154.271 90.5765 155.043 89.2713 154.77 87.9574L154.761 87.9152C157.515 91.0645 161.212 91.0324 161.212 91.0324L161.215 91.0295Z" fill="#FFA8A7"/>
<path d="M146.558 75.0239C147.485 73.8003 149.201 72.8403 149.201 72.8403L144.108 73.2176L146.558 75.0239Z" fill="#F28E8E"/>
<path d="M94.6349 133.283L88.8592 153.083L124.169 178.164L136.041 183.16C139.187 184.484 141.91 186.649 143.91 189.415L153.592 202.811C154.675 205.063 149.626 208.716 147.206 209.335C144.364 210.063 141.348 209.307 139.184 207.326L131.71 200.483L129.648 199.753C123.61 197.62 118.371 193.689 114.635 188.491L73.2437 172.42C65.7025 169.492 61.5801 161.352 63.6806 153.54L70.5474 128.002L94.6379 133.282L94.6349 133.283Z" fill="#FFA8A7"/>
<path d="M94.6752 136.054L104.473 106.749C104.473 106.749 104.802 79.9312 93.4167 80.7557C82.0313 81.5816 76.257 88.1804 67.5111 127.946L67.3247 128.803C75.4136 133.935 85.1049 136.506 94.6752 136.054Z" fill="#445964"/>
<path d="M94.6752 136.054L104.473 106.749C104.473 106.749 104.802 79.9312 93.4167 80.7557C82.0313 81.5816 76.257 88.1804 67.5111 127.946L67.3247 128.803C75.4136 133.935 85.1049 136.506 94.6752 136.054Z" fill="white" fill-opacity="0.501961"/>
</svg>
