<svg width="96" height="135" viewBox="0 0 96 135" fill="none" xmlns="http://www.w3.org/2000/svg">
<path d="M67.902 91.3918L46.6127 92.0124L25.3234 91.3918C24.4056 105.769 27.2127 120.422 31.083 127.579L31.0976 127.576C31.791 129.146 33.1836 130.636 35.3118 131.864C41.5944 135.491 51.746 135.491 57.9864 131.864C60.1495 130.607 61.5421 129.076 62.1976 127.465C66.0374 120.27 68.8138 105.698 67.9005 91.3918H67.902Z" fill="white"/>
<path d="M61.6163 82.6724C69.9587 87.4881 70.0024 95.2959 61.7154 100.112C53.4284 104.927 39.9483 104.927 31.6059 100.112C23.265 95.2959 23.2213 87.4881 31.5083 82.6709C39.7953 77.8551 53.2754 77.8551 61.6163 82.6709V82.6724Z" fill="#EBEBEB"/>
<path d="M58.3185 84.5878C64.8269 88.3446 64.8604 94.4364 58.3957 98.1932C51.9295 101.95 41.4138 101.95 34.9053 98.1932C28.3984 94.4364 28.3634 88.3446 34.8296 84.5864C41.2943 80.8296 51.8115 80.8296 58.3185 84.5864V84.5878Z" fill="#DFDFDF"/>
<path d="M58.3185 84.5878C64.8269 88.3446 64.8604 94.4364 58.3957 98.1932C51.9295 101.95 41.4138 101.95 34.9053 98.1932C28.3984 94.4364 28.3634 88.3446 34.8296 84.5864C41.2943 80.8296 51.8115 80.8296 58.3185 84.5864V84.5878Z" fill="black" fill-opacity="0.14902"/>
<path d="M81.6148 0.54223C33.6363 16.2525 33.2022 48.3489 44.018 71.2055C46.7449 75.8319 55.0014 78.317 62.1857 49.89L49.584 51.5054L64.2702 44.0619L68.0838 32.659L55.8389 33.568L71.3817 27.0304C77.1079 9.7091 81.6134 0.540771 81.6134 0.540771L81.6148 0.54223Z" fill="#7D639E"/>
<path d="M68.0457 8.5697C42.7447 27.773 40.4607 49.7878 47.6071 72.7726C45.0783 52.5351 42.3456 32.0717 68.0457 8.5697Z" fill="white"/>
<path d="M0.353516 33.1486C47.6474 39.8085 53.3838 69.628 47.1084 92.712C45.3371 97.4738 38.061 101.159 26.6465 75.8786L38.651 75.2887L23.7375 70.7963L18.291 60.8108L29.8454 59.6236L14.2852 56.1174C6.07388 40.9374 0.354971 33.1471 0.354971 33.1471L0.353516 33.1486Z" fill="#9783B1"/>
<path d="M14.324 38.3689C41.0773 52.0485 46.8632 72.1725 44.0256 94.7655C43.0176 75.4981 42.1625 55.9859 14.324 38.3689Z" fill="white"/>
<path d="M95.4581 44.3223C52.0871 45.0317 43.5786 71.2664 46.6508 92.7742C47.7141 97.2651 53.8598 101.401 66.9772 79.8928L56.2226 78.018L70.1673 75.6378L76.1936 67.2474L65.9124 64.8832L80.3305 63.4659C89.4304 50.7025 95.4566 44.3208 95.4566 44.3208L95.4581 44.3223Z" fill="#B1A2C5"/>
<path d="M82.2794 47.4644C56.6347 56.8002 49.1692 74.2905 49.1983 94.9709C52.2632 77.7166 55.2173 60.2263 82.2794 47.4644Z" fill="white"/>
</svg>
