<svg width="105" height="148" viewBox="0 0 105 148" fill="none" xmlns="http://www.w3.org/2000/svg">
<path d="M31.4944 88.1709L40.7982 85.0216L32.482 100.218L21.5308 113.556L31.4944 88.1709Z" fill="#445964"/>
<path d="M61.7217 49.0298L50.6044 88.9835L32.8271 109.534L28.1352 122.885L8.18457 134.404L21.5306 113.556L32.4819 100.217L40.7981 85.0213L61.7217 49.0298Z" fill="#36464F"/>
<path d="M96.1554 13.6853L96.3142 69.2239L88.3433 60.2596L83.2653 65.945L61.7226 49.0301L40.7989 85.0216L31.4951 88.1709L21.5315 113.556L8.18539 134.404L28.136 122.885L50.6635 109.878L61.8682 103.411L96.355 83.4994L8.18539 134.404L7.9873 64.5888L96.1554 13.6853Z" fill="#7D639E"/>
<path d="M88.3425 60.2595L96.3134 69.2239L96.3542 83.4993L61.8674 103.411L65.1158 97.0187L74.169 87.2765L88.3425 60.2595Z" fill="#445964"/>
<path d="M61.7228 49.0298L83.2655 65.9447L63.6646 87.8866L50.6637 109.878L28.1362 122.885L32.8282 109.534L50.6054 88.9835L61.7228 49.0298Z" fill="#445964"/>
<path d="M0.32959 60.2259L103.764 0.508057L104.011 87.8634L0.577217 147.581L0.32959 60.2259ZM96.3128 69.2252L96.1555 13.6851L7.98588 64.5901L8.18397 134.404L96.3536 83.4992L96.3128 69.2238V69.2252Z" fill="#B1A2C5"/>
<path d="M88.3431 60.2595L74.1697 87.2765L65.1165 97.0187L61.8681 103.411L50.6633 109.878L63.6642 87.8868L83.2651 65.9449L88.3431 60.2595Z" fill="#36464F"/>
</svg>
