<svg width="82" height="131" viewBox="0 0 82 131" fill="none" xmlns="http://www.w3.org/2000/svg">
<path d="M0.431152 47.4127L81.38 0.676758L81.616 83.8485L0.667151 130.584L0.431152 47.4127ZM73.9597 79.4843L73.7733 13.8524L8.08744 51.7755L8.2739 117.407L73.9597 79.4843Z" fill="#B1A2C5"/>
<path d="M41.4889 39.8248L60.532 41.4592L40.695 66.211L21.6519 64.5781L41.4889 39.8248Z" fill="#F9F9F9"/>
<path d="M60.5318 41.459L60.542 66.5997L40.6977 91.3574L40.6948 66.2108L60.5318 41.459Z" fill="#EBEBEB"/>
<path d="M21.6519 64.5781L40.695 66.2111L40.6979 91.3576L21.6533 89.7232L21.6519 64.5781Z" fill="#DFDFDF"/>
<path d="M8.08887 51.7768L73.7747 13.8538L73.9612 79.4857L8.27533 117.409L8.08887 51.7768ZM60.5437 66.6L60.5321 41.4592L41.489 39.8263L21.6519 64.5796L21.6549 89.7261L40.698 91.3591L60.5437 66.6014V66.6Z" fill="#7D639E"/>
</svg>
