<svg width="67" height="107" viewBox="0 0 67 107" fill="none" xmlns="http://www.w3.org/2000/svg">
<path d="M0.245605 38.3382L66.6496 0L66.8433 68.2277L0.439355 106.566L0.245605 38.3382ZM60.5621 64.6472L60.4092 10.8085L6.5268 41.9173L6.67976 95.756L60.5621 64.6472Z" fill="#B1A2C5"/>
<path d="M60.4092 10.8085L6.52686 41.9172L6.67836 95.7559L60.5622 64.6472L60.4092 10.8085Z" fill="#7D639E"/>
<path d="M42.7967 48.9252C44.0436 48.4736 45.4173 48.2711 46.7676 48.3862C47.1274 48.4168 47.4478 48.4678 47.7348 48.5377C50.2986 49.1568 50.0349 51.2384 49.0837 53.6958C48.4311 55.387 47.6037 56.8582 46.2141 57.6608C45.5891 58.0221 44.8492 58.2464 43.9606 58.2945C43.6387 58.312 43.2978 58.3061 42.9351 58.2756C41.5906 58.1576 40.4617 57.7366 39.6313 57.1088C39.828 56.7956 40.0217 56.4795 40.2096 56.1561C40.7777 55.1772 41.2847 54.1415 41.7042 53.0577C42.1237 51.9783 42.4252 50.9266 42.6277 49.9142C42.6947 49.5807 42.7501 49.25 42.7967 48.9252Z" fill="white"/>
<path d="M38.2346 55.2007C38.4633 55.9378 38.9426 56.5918 39.6272 57.106C39.8268 56.7957 40.022 56.4796 40.2084 56.1563C40.0205 56.4796 39.8268 56.7957 39.6272 57.106C39.215 57.7571 38.7634 58.3923 38.271 59.0026C37.7831 59.6115 37.2776 60.1679 36.7619 60.6763C36.5551 60.8744 36.3468 61.0725 36.137 61.2648C36.3482 61.0725 36.5551 60.8744 36.7605 60.6705C36.4138 59.7368 35.9491 59.0652 35.4072 58.72C36.4866 57.7426 37.4538 56.5277 38.2346 55.2021V55.2007Z" fill="#DFDFDF"/>
<path d="M41.2789 49.6275C41.7537 49.3537 42.2636 49.1177 42.7967 48.9254C42.7501 49.2503 42.6947 49.5809 42.6277 49.9145C42.4252 50.9269 42.1237 51.9786 41.7042 53.058C41.2847 54.1418 40.7777 55.1775 40.2096 56.1564C40.0217 56.4797 39.828 56.7958 39.6284 57.1061C38.9452 56.5919 38.4645 55.9378 38.2358 55.2008C39.1157 53.7062 39.7624 52.0704 40.0669 50.4768C40.434 50.165 40.8418 49.8795 41.2803 49.6261L41.2789 49.6275Z" fill="#EFEFEF"/>
<path d="M47.7151 39.8048C50.8367 38.3496 51.4514 39.8179 51.4573 42.0146C51.4631 44.2127 50.8586 46.3875 47.734 48.5361C47.447 48.4676 47.1266 48.4166 46.7668 48.3846C45.4164 48.2695 44.0428 48.472 42.8003 48.9221C42.8964 48.2477 42.9474 47.5805 42.9459 46.9279C42.9445 46.2768 42.8906 45.6723 42.7915 45.1129C44.0326 44.1238 45.4019 42.7429 46.7478 41.0765C47.1091 40.6278 47.4296 40.2039 47.7165 39.8033L47.7151 39.8048Z" fill="#EFEFEF"/>
<path d="M36.7603 60.6705C37.1857 61.8053 37.4318 63.326 37.4362 65.1119C37.4377 65.5883 37.4216 66.0355 37.3896 66.4564C37.1012 70.2249 35.5178 71.8359 33.6037 72.9416C31.6896 74.0472 30.1018 74.2657 29.793 70.8425C29.7581 70.4608 29.7406 70.0326 29.7391 69.5562C29.7333 67.7704 29.9708 65.9714 30.3859 64.3574C30.5928 64.318 30.801 64.2743 31.0137 64.2234C31.828 64.0238 32.686 63.68 33.5775 63.1658C34.469 62.6516 35.3255 62.0048 36.1398 61.2649C36.351 61.0726 36.5578 60.8745 36.7632 60.6705H36.7603Z" fill="white"/>
<path d="M42.7847 45.1189C42.8896 45.6753 42.9435 46.2799 42.945 46.9295C42.9464 47.5821 42.8969 48.2493 42.7993 48.9237C42.7483 49.25 42.693 49.5807 42.626 49.9143C42.693 49.5807 42.7483 49.25 42.7949 48.9252C42.2603 49.1175 41.7505 49.3535 41.2771 49.6273C40.8386 49.8793 40.4322 50.1648 40.0637 50.478C40.1933 49.7992 40.2618 49.1291 40.2603 48.4809C40.2588 47.8312 40.186 47.2427 40.0535 46.7154C40.4235 46.6033 40.8343 46.4168 41.2756 46.1619C41.7476 45.8895 42.253 45.5399 42.7833 45.1204L42.7847 45.1189Z" fill="#DFDFDF"/>
<path d="M35.4069 58.7201C35.9488 59.0668 36.4135 59.7383 36.7602 60.6706C36.5548 60.8745 36.3479 61.0726 36.1367 61.2649C35.3224 62.0063 34.4659 62.6516 33.5744 63.1659C32.6829 63.6801 31.8264 64.0253 31.0106 64.2234C30.7994 64.2758 30.5911 64.3181 30.3857 64.3501C30.7266 63.0202 31.1854 61.8155 31.723 60.8454C32.3085 60.6982 32.9276 60.4448 33.5656 60.0762C34.2051 59.7077 34.8213 59.2489 35.4069 58.7186V58.7201Z" fill="#EFEFEF"/>
<path d="M24.2984 59.6069C24.3508 59.875 24.4076 60.1386 24.4761 60.3935C24.6844 61.1685 24.9903 61.8691 25.4142 62.462C25.8381 63.0592 26.3494 63.5065 26.9219 63.8269C27.1112 63.9333 27.3064 64.025 27.5075 64.1037C26.6801 65.6915 25.5584 67.4133 24.2183 69.0811C23.857 69.5313 23.5161 69.9289 23.1957 70.2829C22.31 71.2589 21.5715 71.8867 20.9466 72.248C19.5584 73.0491 18.7237 72.5378 18.0638 71.6041C17.101 70.2523 16.8271 68.4795 19.3792 64.9078C19.6633 64.5086 19.9837 64.0877 20.342 63.6434C21.6866 61.9711 23.0573 60.5902 24.2984 59.6069Z" fill="white"/>
<path d="M27.505 64.1096C27.9231 64.2771 28.3776 64.3878 28.8699 64.4301C29.3608 64.4738 29.8678 64.4461 30.3849 64.3587C29.9697 65.9727 29.7323 67.7702 29.7381 69.5576C29.7396 70.0339 29.7585 70.4607 29.792 70.8438C28.7388 73.1599 27.7323 74.3559 26.749 74.924C26.0367 75.3348 25.336 75.4178 24.6397 75.3581C22.9806 75.2153 21.907 74.3165 23.1977 70.2845C23.5181 69.9305 23.859 69.5314 24.2202 69.0827C25.5604 67.4148 26.6835 65.6945 27.5065 64.1125L27.505 64.1096Z" fill="#EFEFEF"/>
<path d="M28.8855 60.599C29.6721 61.02 30.6437 61.1176 31.7245 60.8466C31.187 61.8168 30.7267 63.0214 30.3873 64.3514C30.5927 64.3193 30.801 64.2771 31.0122 64.2247C30.801 64.2771 30.5927 64.3193 30.3873 64.3514C29.8687 64.4461 29.3618 64.4752 28.8709 64.4301C28.3785 64.3878 27.9226 64.2771 27.506 64.1096C27.3079 64.0236 27.1127 63.9319 26.9248 63.827C27.1142 63.9333 27.3094 64.0251 27.5104 64.1038C28.1892 62.8029 28.6641 61.5983 28.8869 60.599H28.8855Z" fill="#DFDFDF"/>
<path d="M39.5807 40.6122C40.3906 40.9297 41.1087 41.46 41.6739 42.2538C42.2377 43.0477 42.5945 44.0266 42.7868 45.1177C42.258 45.5372 41.7511 45.8882 41.2792 46.1592C40.8378 46.4141 40.427 46.6006 40.057 46.7127C39.7438 45.476 39.0912 44.5904 38.2056 44.1155C38.4299 43.1177 38.9033 41.913 39.5821 40.6107L39.5807 40.6122Z" fill="#EFEFEF"/>
<path d="M46.1412 32.4677C47.5309 31.6651 48.3641 32.1778 49.0239 33.1116C49.9854 34.4634 50.2607 36.2376 47.7144 39.805C47.4274 40.2056 47.1069 40.6295 46.7457 41.0781C45.4012 42.7431 44.0305 44.124 42.7894 45.1146C42.5927 44.0279 42.2358 43.0475 41.6721 42.2536C41.1069 41.4598 40.3888 40.9295 39.5789 40.612C40.4062 39.0242 41.5279 37.3024 42.868 35.6345C43.2293 35.1859 43.5702 34.7867 43.8906 34.4328C44.7763 33.4568 45.5148 32.829 46.1397 32.4677H46.1412Z" fill="white"/>
<path d="M36.7015 40.3644C37.2201 40.2697 37.727 40.242 38.2179 40.2857C38.7117 40.3279 39.1662 40.4386 39.5828 40.6062C38.9011 41.9143 38.4276 43.1189 38.2033 44.1167C37.4167 43.6958 36.4451 43.5982 35.3643 43.8691C35.9018 42.899 36.3621 41.6943 36.7015 40.3644Z" fill="#DFDFDF"/>
<path d="M25.8203 58.5523C26.2588 58.3003 26.6652 58.1139 27.0338 58.0017C27.3469 59.2384 27.9995 60.1255 28.8852 60.599C28.6623 61.5982 28.1874 62.8029 27.5086 64.1037C27.3076 64.0251 27.1124 63.9333 26.923 63.827C26.352 63.5065 25.8393 63.0578 25.4154 62.462C24.9915 61.8706 24.6841 61.1685 24.4773 60.3936C24.4088 60.1372 24.3506 59.8735 24.3025 59.6026C24.8356 59.1787 25.3455 58.8247 25.8203 58.5523Z" fill="#EFEFEF"/>
<path d="M33.5218 44.6396C34.1599 44.2711 34.7789 44.0161 35.3645 43.8705C36.4454 43.5995 37.417 43.6971 38.2036 44.1181C39.0892 44.593 39.7418 45.4786 40.055 46.7154C40.1875 47.2412 40.2604 47.8312 40.2618 48.4808C40.2633 49.1291 40.1948 49.8006 40.0652 50.4779C39.7608 52.0715 39.1154 53.7074 38.2341 55.2019C37.4519 56.529 36.4847 57.7438 35.4068 58.7198C34.8226 59.2486 34.205 59.7089 33.5655 60.0774C32.9275 60.446 32.3084 60.7009 31.7228 60.8465C30.642 61.1175 29.6704 61.0199 28.8838 60.5989C27.9981 60.1255 27.3455 59.2384 27.0323 58.0017C26.8983 57.4758 26.8269 56.8859 26.8255 56.2362C26.824 55.588 26.8925 54.9164 27.0207 54.2391C27.3251 52.6455 27.9704 51.0111 28.8517 49.5165C29.634 48.1895 30.6012 46.9732 31.6806 45.9958C32.2647 45.467 32.8823 45.0081 33.5218 44.6381V44.6396Z" fill="#BA67C8"/>
<path d="M33.5218 44.6396C34.1599 44.2711 34.7789 44.0161 35.3645 43.8705C36.4454 43.5995 37.417 43.6971 38.2036 44.1181C39.0892 44.593 39.7418 45.4786 40.055 46.7154C40.1875 47.2412 40.2604 47.8312 40.2618 48.4808C40.2633 49.1291 40.1948 49.8006 40.0652 50.4779C39.7608 52.0715 39.1154 53.7074 38.2341 55.2019C37.4519 56.529 36.4847 57.7438 35.4068 58.7198C34.8226 59.2486 34.205 59.7089 33.5655 60.0774C32.9275 60.446 32.3084 60.7009 31.7228 60.8465C30.642 61.1175 29.6704 61.0199 28.8838 60.5989C27.9981 60.1255 27.3455 59.2384 27.0323 58.0017C26.8983 57.4758 26.8269 56.8859 26.8255 56.2362C26.824 55.588 26.8925 54.9164 27.0207 54.2391C27.3251 52.6455 27.9704 51.0111 28.8517 49.5165C29.634 48.1895 30.6012 46.9732 31.6806 45.9958C32.2647 45.467 32.8823 45.0081 33.5218 44.6381V44.6396Z" fill="white"/>
<path d="M20.8751 47.0563C21.5 46.695 22.24 46.4707 23.1271 46.4226C23.449 46.4051 23.7913 46.4109 24.154 46.4415C25.4986 46.5595 26.6275 46.9805 27.4578 47.6083C26.6551 48.8611 25.9428 50.2187 25.3849 51.6593C24.827 53.1 24.4774 54.4882 24.2924 55.7963C23.0455 56.242 21.6719 56.446 20.3215 56.3353C19.9588 56.3047 19.6369 56.2522 19.3485 56.1823C16.7906 55.5603 17.0542 53.4758 18.0054 51.0199C18.658 49.3287 19.4869 47.8574 20.8751 47.0548V47.0563Z" fill="white"/>
<path d="M24.2868 55.798C24.8229 55.6043 25.3298 55.3698 25.8003 55.0974C26.2417 54.8424 26.6525 54.5555 27.0225 54.2394C26.8928 54.9182 26.8243 55.5883 26.8273 56.2365C26.8287 56.8862 26.9016 57.4747 27.0341 58.002C26.6656 58.1141 26.2592 58.2991 25.8207 58.5526C25.3458 58.8264 24.836 59.179 24.3029 59.6029C24.3509 59.8738 24.4077 60.1375 24.4777 60.3938C24.4092 60.1375 24.3509 59.8738 24.3029 59.6029C24.1994 59.045 24.1441 58.439 24.1426 57.7864C24.1412 57.1353 24.1907 56.471 24.2868 55.798Z" fill="#DFDFDF"/>
<path d="M40.337 29.7977C41.0494 29.3855 41.7515 29.3039 42.4492 29.3636C44.1084 29.5006 45.182 30.3993 43.8913 34.4314C43.5709 34.7854 43.23 35.1845 42.8688 35.6332C41.5286 37.3025 40.4055 39.0228 39.5825 40.6048C39.1644 40.4358 38.71 40.3266 38.2176 40.2843C37.7267 40.2406 37.2198 40.2683 36.7041 40.3557C37.1193 38.7417 37.3567 36.9442 37.3509 35.1627C37.3494 34.6849 37.3305 34.2581 37.297 33.8764C38.3487 31.5603 39.3552 30.3658 40.3385 29.7977H40.337Z" fill="#EFEFEF"/>
<path d="M33.5132 41.5547C34.6348 40.9065 35.704 40.5292 36.7018 40.3646C36.3609 41.6946 35.9021 42.8992 35.3646 43.8694C34.779 44.0151 34.1599 44.27 33.5219 44.6385C32.8824 45.007 32.2662 45.4659 31.6806 45.9961C31.1388 45.6494 30.6741 44.9779 30.3274 44.0456C31.3223 43.0595 32.3901 42.2029 33.5132 41.5562V41.5547Z" fill="#EFEFEF"/>
<path d="M30.3257 44.0394C30.6739 44.9775 31.1385 45.6505 31.6804 45.9957C30.601 46.9732 29.6338 48.1895 28.8516 49.5165C28.6229 48.7794 28.1436 48.1254 27.459 47.6097C27.8712 46.9586 28.3243 46.325 28.8152 45.7132C29.3031 45.1043 29.81 44.5478 30.3243 44.0394H30.3257Z" fill="#DFDFDF"/>
<path d="M33.4857 31.7744C35.3998 30.6688 36.9875 30.4561 37.2963 33.8779C37.3313 34.2595 37.3502 34.6878 37.3502 35.1641C37.356 36.9456 37.1186 38.7432 36.7035 40.3572C35.7042 40.529 34.635 40.9063 33.5133 41.5545C32.3917 42.2028 31.3225 43.0578 30.3276 44.044C29.9022 42.9092 29.6561 41.3899 29.6517 39.6084C29.6502 39.1321 29.6663 38.6834 29.6983 38.2625C29.9882 34.494 31.5716 32.8771 33.4857 31.773V31.7744Z" fill="white"/>
<path d="M26.643 37.7045C27.6263 37.1364 28.6358 37.1685 29.6977 38.2639C29.6656 38.6849 29.6496 39.1321 29.6511 39.6099C29.6554 41.3914 29.9016 42.9107 30.3255 44.0396C29.8098 44.548 29.3044 45.1044 28.8164 45.7133C28.3255 46.3237 27.8725 46.9573 27.4573 47.607C26.627 46.9806 25.4981 46.5582 24.1536 46.4402C23.7909 46.4096 23.4485 46.4038 23.1266 46.4213C21.8185 43.891 22.8833 41.757 24.5367 39.706C25.2315 38.8407 25.9307 38.1153 26.6445 37.7031L26.643 37.7045Z" fill="#EFEFEF"/>
<path d="M27.4603 47.6101C28.1434 48.1272 28.6227 48.7813 28.8528 49.5169C27.973 51.0114 27.3277 52.6458 27.0218 54.2394C26.6518 54.5541 26.241 54.8425 25.7997 55.0974C25.3277 55.3698 24.8208 55.6043 24.2905 55.7966C24.4755 54.4871 24.8251 53.1003 25.383 51.6597C25.9409 50.219 26.6533 48.8614 27.4588 47.6101H27.4603Z" fill="#EFEFEF"/>
<path d="M19.3481 56.1823C19.6365 56.2522 19.9584 56.3032 20.3211 56.3352C21.6715 56.446 23.0437 56.242 24.2862 55.7977C24.1901 56.4707 24.1405 57.135 24.142 57.7861C24.1435 58.4387 24.1974 59.0447 24.2979 59.6055C23.0568 60.5902 21.686 61.9697 20.3415 63.6419C19.9832 64.0877 19.6627 64.5086 19.3787 64.9063C16.2527 66.3659 15.6365 64.8976 15.6307 62.698C15.6248 60.5013 16.2294 58.3294 19.3481 56.1808V56.1823Z" fill="#EFEFEF"/>
<path d="M39.6309 57.1089C40.4612 57.7353 41.5886 58.1562 42.9346 58.2757C43.2973 58.3063 43.6382 58.3121 43.9601 58.2946C45.2697 60.8249 44.2034 62.9604 42.5515 65.0143C41.8567 65.8781 41.1589 66.6035 40.4466 67.0143C39.4633 67.5824 38.4524 67.5503 37.389 66.4564C37.4211 66.0354 37.4371 65.5882 37.4357 65.1119C37.4313 63.326 37.1851 61.8052 36.7612 60.6763C37.2769 60.1679 37.7823 59.61 38.2703 59.0026C38.7612 58.3922 39.2143 57.7571 39.6294 57.1089H39.6309Z" fill="#EFEFEF"/>
</svg>
